<?xml version="1.0" encoding="UTF-8"?>
<svg version="1.1" xmlns="http://www.w3.org/2000/svg" width="30" height="30">
<path d="M0 0 C10.56 0 21.12 0 32 0 C32 10.56 32 21.12 32 32 C21.44 32 10.88 32 0 32 C0 21.44 0 10.88 0 0 Z " fill="#E9F2EA" transform="translate(0,0)"/>
<path d="M0 0 C10.56 0 21.12 0 32 0 C32 10.56 32 21.12 32 32 C27.05 32 22.1 32 17 32 C21 30 21 30 24 29 C23.01 28.01 22.02 27.02 21 26 C23.49064888 25.31292445 25.37886292 25 28 25 C27.66742187 24.443125 27.33484375 23.88625 26.9921875 23.3125 C25.83406043 20.61324321 25.92097508 18.90957272 26.125 16 C26.2454329 11.93127697 26.2454329 11.93127697 24.1875 8.4375 C19.17552014 5.14391324 14.10315668 5.63738678 8.375 6.625 C4.82048807 7.01994577 3.13417064 6.61457276 0 5 C0 3.35 0 1.7 0 0 Z " fill="#F0F4EB" transform="translate(0,0)"/>
<path d="M0 0 C6.11592251 -0.49925898 9.06944887 0.64722523 14 4 C15.72267512 7.44535024 14.95492067 11.3640115 14.83984375 15.15234375 C14.77006161 18.20445414 14.77006161 18.20445414 17 21 C15.68 21 14.36 21 13 21 C12.113125 21.350625 11.22625 21.70125 10.3125 22.0625 C5.9361911 23.30107799 2.38078841 23.20793798 -2 22 C-5.0625 20.0625 -5.0625 20.0625 -7 17 C-7.39247477 13.62265131 -7.29552489 10.38211817 -7 7 C-6.67 7.66 -6.34 8.32 -6 9 C-4.35 9 -2.7 9 -1 9 C-0.67 8.34 -0.34 7.68 0 7 C0 10.96 0 14.92 0 19 C1.98 18.67 3.96 18.34 6 18 C6 16.02 6 14.04 6 12 C4.35 12 2.7 12 1 12 C1.33 9.69 1.66 7.38 2 5 C3.65 5.33 5.3 5.66 7 6 C7.33 5.01 7.66 4.02 8 3 C6.02 3.33 4.04 3.66 2 4 C2 3.34 2 2.68 2 2 C1.34 2 0.68 2 0 2 C0 1.34 0 0.68 0 0 Z " fill="#698FA0" transform="translate(12,5)"/>
<path d="M0 0 C0.33 0.66 0.66 1.32 1 2 C2.65 2 4.3 2 6 2 C6.33 1.34 6.66 0.68 7 0 C7 3.96 7 7.92 7 12 C14.18510914 11.18306955 14.18510914 11.18306955 21 9 C21.99 10.65 22.98 12.3 24 14 C22.68 14 21.36 14 20 14 C19.113125 14.350625 18.22625 14.70125 17.3125 15.0625 C12.9361911 16.30107799 9.38078841 16.20793798 5 15 C1.9375 13.0625 1.9375 13.0625 0 10 C-0.39247477 6.62265131 -0.29552489 3.38211817 0 0 Z " fill="#96AFBD" transform="translate(5,12)"/>
<path d="M0 0 C0.66 0 1.32 0 2 0 C2.66 1.32 3.32 2.64 4 4 C4.66 4 5.32 4 6 4 C6 9.94 6 15.88 6 22 C1.05 22 -3.9 22 -9 22 C-5 20 -5 20 -2 19 C-2.99 18.01 -3.98 17.02 -5 16 C-2.50935112 15.31292445 -0.62113708 15 2 15 C1.67257813 14.45859375 1.34515625 13.9171875 1.0078125 13.359375 C-0.21664767 10.49280933 -0.19892146 8.3547013 -0.125 5.25 C-0.10695313 4.26515625 -0.08890625 3.2803125 -0.0703125 2.265625 C-0.04710937 1.51796875 -0.02390625 0.7703125 0 0 Z " fill="#E5EFE8" transform="translate(26,10)"/>
<path d="M0 0 C0 0.66 0 1.32 0 2 C1.98 1.67 3.96 1.34 6 1 C5.67 2.32 5.34 3.64 5 5 C2.525 4.01 2.525 4.01 0 3 C-0.33 5.31 -0.66 7.62 -1 10 C0.65 10 2.3 10 4 10 C4.12375 10.78375 4.2475 11.5675 4.375 12.375 C4.79117993 15.14057822 4.79117993 15.14057822 7 17 C4.03 17 1.06 17 -2 17 C-2.33 13.7 -2.66 10.4 -3 7 C-4.65 7 -6.3 7 -8 7 C-8.33 4.69 -8.66 2.38 -9 0 C-5.62182575 -0.84454356 -3.32534757 -1.10844919 0 0 Z " fill="#ADD0D7" transform="translate(14,7)"/>
<path d="M0 0 C6.11592251 -0.49925898 9.06944887 0.64722523 14 4 C15.20272819 6.40545638 15.10071472 7.94996953 15.0625 10.625 C15.05347656 11.44226562 15.04445313 12.25953125 15.03515625 13.1015625 C15.02355469 13.72804688 15.01195312 14.35453125 15 15 C14.566875 14.360625 14.13375 13.72125 13.6875 13.0625 C12.08760823 10.73253997 12.08760823 10.73253997 9 10 C9 7.36 9 4.72 9 2 C8.01 2.66 7.02 3.32 6 4 C4.68 4 3.36 4 2 4 C2 3.34 2 2.68 2 2 C1.34 2 0.68 2 0 2 C0 1.34 0 0.68 0 0 Z " fill="#1E666D" transform="translate(12,5)"/>
<path d="M0 0 C1.32 1.65 2.64 3.3 4 5 C2.68 5 1.36 5 0 5 C-0.886875 5.350625 -1.77375 5.70125 -2.6875 6.0625 C-6.88785615 7.25128004 -10.79041061 7.25445764 -15 6 C-15.66 5.01 -16.32 4.02 -17 3 C-16.10796875 2.95101563 -15.2159375 2.90203125 -14.296875 2.8515625 C-12.54117187 2.73941406 -12.54117187 2.73941406 -10.75 2.625 C-9.00976562 2.52058594 -9.00976562 2.52058594 -7.234375 2.4140625 C-4.29305666 2.03751692 -2.50050989 1.5225877 0 0 Z " fill="#396276" transform="translate(25,21)"/>
<path d="M0 0 C2.475 0.495 2.475 0.495 5 1 C5.03738281 2.10859375 5.07476563 3.2171875 5.11328125 4.359375 C5.17895448 5.82294974 5.24540135 7.28648991 5.3125 8.75 C5.33505859 9.47960938 5.35761719 10.20921875 5.38085938 10.9609375 C5.59309781 15.20570619 5.97070799 17.913858 9 21 C6.525 20.01 6.525 20.01 4 19 C3.67 15.04 3.34 11.08 3 7 C2.67 9.64 2.34 12.28 2 15 C0 13 0 13 -0.1953125 9.9609375 C-0.17210938 8.77757812 -0.14890625 7.59421875 -0.125 6.375 C-0.10695312 5.18648437 -0.08890625 3.99796875 -0.0703125 2.7734375 C-0.04710937 1.85820313 -0.02390625 0.94296875 0 0 Z " fill="#D1E5DC" transform="translate(0,5)"/>
<path d="M0 0 C3.4372166 -0.11604679 6.87393086 -0.18719508 10.3125 -0.25 C11.28896484 -0.28351562 12.26542969 -0.31703125 13.27148438 -0.3515625 C14.20927734 -0.36445312 15.14707031 -0.37734375 16.11328125 -0.390625 C16.97735596 -0.41157227 17.84143066 -0.43251953 18.73168945 -0.45410156 C21 0 21 0 22.80541992 2.02441406 C23.19963135 2.67635742 23.59384277 3.32830078 24 4 C23.43152344 3.91621094 22.86304687 3.83242188 22.27734375 3.74609375 C18.4428605 3.24037726 15.28939311 2.95430635 11.4375 3.5625 C7.07248216 4.11804773 4.19493066 3.25111967 0 2 C0 1.34 0 0.68 0 0 Z " fill="#F4F0E5" transform="translate(0,0)"/>
<path d="M0 0 C2.94939027 -0.06859047 5.61322903 -0.08702347 8.5 0.5625 C11.54319721 1.09505951 13.97462176 0.52615274 17 0 C17.99 0.33 18.98 0.66 20 1 C20 1.66 20 2.32 20 3 C21.32 3.33 22.64 3.66 24 4 C23.67 4.66 23.34 5.32 23 6 C22.484375 5.67 21.96875 5.34 21.4375 5 C17.09911929 3.2201515 12.91354247 3.84249268 8.375 4.625 C4.82048807 5.01994577 3.13417064 4.61457276 0 3 C0 2.01 0 1.02 0 0 Z " fill="#DBF6ED" transform="translate(0,2)"/>
<path d="M0 0 C0.66 0 1.32 0 2 0 C2.1953125 6.0546875 2.1953125 6.0546875 2 8 C0 10 0 10 -3.125 10.125 C-4.548125 10.063125 -4.548125 10.063125 -6 10 C-5.67 7.69 -5.34 5.38 -5 3 C-3.35 3.33 -1.7 3.66 0 4 C0 2.68 0 1.36 0 0 Z " fill="#9ADECD" transform="translate(19,7)"/>
<path d="M0 0 C-0.66 0 -1.32 0 -2 0 C-2.33 1.98 -2.66 3.96 -3 6 C-4.65 6 -6.3 6 -8 6 C-8.33 3.69 -8.66 1.38 -9 -1 C-5.22102349 -2.0497157 -3.35080929 -2.10976881 0 0 Z " fill="#82A0A0" transform="translate(14,8)"/>
<path d="M0 0 C2.94982021 1.14186589 4.88437775 2.67281553 7 5 C3.68629 7.20914 2.6553979 7.22481553 -1.1875 7.125 C-2.08855469 7.10695313 -2.98960938 7.08890625 -3.91796875 7.0703125 C-4.60503906 7.04710937 -5.29210937 7.02390625 -6 7 C-3.66785852 5.79371992 -1.50357861 4.8345262 1 4 C0.01 3.01 -0.98 2.02 -2 1 C-1.34 0.67 -0.68 0.34 0 0 Z " fill="#DDE4E1" transform="translate(23,25)"/>
<path d="M0 0 C0.33 0.66 0.66 1.32 1 2 C2.65 2 4.3 2 6 2 C6 2.66 6 3.32 6 4 C5.01 4 4.02 4 3 4 C3 6.64 3 9.28 3 12 C2.01 11.34 1.02 10.68 0 10 C-0.29296875 7.6171875 -0.29296875 7.6171875 -0.1875 4.875 C-0.16042969 3.96492187 -0.13335938 3.05484375 -0.10546875 2.1171875 C-0.07066406 1.41851562 -0.03585938 0.71984375 0 0 Z " fill="#2D7075" transform="translate(5,12)"/>
<path d="M0 0 C2.64 0 5.28 0 8 0 C7.67 1.32 7.34 2.64 7 4 C4.525 3.01 4.525 3.01 2 2 C1.67 4.31 1.34 6.62 1 9 C2.65 9 4.3 9 6 9 C6 9.33 6 9.66 6 10 C4.35 10 2.7 10 1 10 C1.33 11.32 1.66 12.64 2 14 C1.34 14 0.68 14 0 14 C0 9.38 0 4.76 0 0 Z " fill="#D7F6F7" transform="translate(12,8)"/>
<path d="M0 0 C6.625 -0.25 6.625 -0.25 10 2 C6.91190305 3.76462683 5.76687864 4 2 4 C2 3.34 2 2.68 2 2 C1.34 2 0.68 2 0 2 C0 1.34 0 0.68 0 0 Z " fill="#458885" transform="translate(12,5)"/>
<path d="M0 0 C1.9375 0.25 1.9375 0.25 4 1 C4.66 1.99 5.32 2.98 6 4 C4.02 4.33 2.04 4.66 0 5 C-0.5625 3.0625 -0.5625 3.0625 -1 1 C-0.67 0.67 -0.34 0.34 0 0 Z " fill="#9ABDD0" transform="translate(21,17)"/>
<path d="M0 0 C1.32 0 2.64 0 4 0 C4 1.98 4 3.96 4 6 C2.68 6 1.36 6 0 6 C0 4.02 0 2.04 0 0 Z " fill="#D1E1E8" transform="translate(6,8)"/>
<path d="M0 0 C1.9375 0.75 1.9375 0.75 4 2 C4.75 4.125 4.75 4.125 5 6 C3.35 6.33 1.7 6.66 0 7 C0 4.69 0 2.38 0 0 Z " fill="#38968D" transform="translate(22,7)"/>
<path d="M0 0 C1.32 1.65 2.64 3.3 4 5 C0 5 0 5 -2 4 C-1.34 2.68 -0.68 1.36 0 0 Z " fill="#4A6170" transform="translate(25,21)"/>
<path d="M0 0 C0.99 0 1.98 0 3 0 C2.67 1.65 2.34 3.3 2 5 C0.68 5 -0.64 5 -2 5 C-2 4.34 -2 3.68 -2 3 C-1.34 3 -0.68 3 0 3 C0 2.01 0 1.02 0 0 Z " fill="#43B385" transform="translate(16,11)"/>
<path d="M0 0 C2.475 0.495 2.475 0.495 5 1 C4.01 2.485 4.01 2.485 3 4 C2.01 4 1.02 4 0 4 C0 2.68 0 1.36 0 0 Z " fill="#F9F0EE" transform="translate(0,5)"/>
</svg>
