<svg version="1.0" xmlns="http://www.w3.org/2000/svg"
    width="350.000000pt" height="300.000000pt" viewBox="0 0 1024.000000 1024.000000"
    preserveAspectRatio="xMidYMid meet">

    <g transform="translate(0.000000,1024.000000) scale(0.100000,-0.100000)"
        fill="#000000" stroke="none">
        <path d="M5360 9134 c0 -8 5 -12 10 -9 6 4 8 11 5 16 -9 14 -15 11 -15 -7z" />
        <path
            d="M4887 9069 c-57 -13 -111 -45 -141 -79 -35 -42 -35 -103 0 -173 44
-85 180 -257 205 -257 5 0 34 30 65 68 123 147 175 253 155 315 -29 88 -176
153 -284 126z m134 -39 c52 -15 102 -51 113 -83 14 -38 0 -45 -32 -14 -39 37
-93 57 -157 57 -66 0 -109 -16 -148 -56 -23 -22 -30 -25 -37 -14 -15 25 17 67
72 94 56 28 124 34 189 16z m24 -99 c45 -25 44 -48 -2 -60 -71 -20 -233 -7
-233 18 0 4 10 17 23 29 44 42 149 48 212 13z m-69 -186 c10 -25 -5 -65 -24
-65 -22 0 -42 19 -42 40 0 35 55 56 66 25z" />
        <path d="M5360 9004 c0 -8 5 -12 10 -9 6 3 10 10 10 16 0 5 -4 9 -10 9 -5 0
-10 -7 -10 -16z" />
        <path d="M5360 8940 c0 -19 3 -21 12 -12 9 9 9 15 0 24 -9 9 -12 7 -12 -12z" />
        <path d="M5360 8871 c0 -25 6 -27 13 -6 4 8 2 17 -3 20 -6 4 -10 -3 -10 -14z" />
        <path d="M5360 8804 c0 -8 5 -12 10 -9 6 4 8 11 5 16 -9 14 -15 11 -15 -7z" />
        <path d="M5361 8734 c0 -11 3 -14 6 -6 3 7 2 16 -1 19 -3 4 -6 -2 -5 -13z" />
        <path
            d="M1930 8680 c-56 -7 -102 -33 -126 -74 -18 -29 -19 -59 -22 -391 -3
-389 0 -424 47 -469 45 -43 68 -46 347 -46 l264 0 2 -1021 3 -1021 36 -33 c45
-41 91 -48 249 -40 63 4 120 6 125 5 64 -5 520 -11 540 -6 14 4 25 13 25 21 0
13 -58 15 -440 15 l-440 0 -32 29 -33 29 -3 949 c-1 521 0 976 3 1010 l6 62
283 3 283 3 35 27 c68 52 68 54 68 459 0 341 -1 365 -20 403 -11 23 -36 52
-56 65 l-35 25 -532 0 c-293 1 -552 -1 -577 -4z m249 -426 c26 -31 24 -83 -5
-115 -17 -19 -75 -26 -109 -13 -25 10 -47 62 -40 95 16 70 105 89 154 33z
m338 12 c22 -19 28 -32 28 -65 0 -78 -75 -115 -133 -66 -26 22 -32 34 -32 66
0 79 78 116 137 65z m352 -2 c38 -32 43 -87 11 -122 -51 -55 -150 -14 -150 61
1 77 80 111 139 61z" />
        <path
            d="M8019 8680 c-55 -7 -93 -30 -119 -73 -19 -30 -20 -53 -20 -415 0
-264 3 -390 11 -405 19 -36 62 -77 81 -77 22 0 23 10 -7 -122 -14 -61 -23
-113 -21 -115 2 -2 73 48 159 111 l155 115 439 3 438 3 34 24 c68 49 71 63 71
466 0 333 -2 363 -19 402 -14 30 -31 48 -63 64 -43 22 -46 22 -568 23 -289 1
-546 -1 -571 -4z m241 -417 c29 -24 32 -31 27 -66 -7 -52 -36 -81 -82 -81 -77
0 -115 94 -60 149 32 33 75 32 115 -2z m333 15 c33 -17 46 -39 47 -79 0 -38
-26 -71 -67 -83 -26 -8 -78 16 -93 43 -40 76 39 159 113 119z m370 -8 c34 -27
43 -70 22 -110 -42 -81 -165 -44 -165 50 0 12 13 35 29 51 35 35 77 38 114 9z" />
        <path d="M5380 8660 c6 -11 15 -20 20 -20 14 0 1 28 -16 34 -12 4 -12 2 -4
-14z" />
        <path d="M5440 8630 c0 -5 10 -10 23 -10 18 0 19 2 7 10 -19 13 -30 13 -30 0z" />
        <path
            d="M5515 8630 c-3 -5 3 -10 15 -10 12 0 18 5 15 10 -3 6 -10 10 -15 10
-5 0 -12 -4 -15 -10z" />
        <path d="M5582 8631 c2 -7 7 -12 11 -12 12 1 9 15 -3 20 -7 2 -11 -2 -8 -8z" />
        <path d="M5655 8631 c-7 -12 12 -24 25 -16 11 7 4 25 -10 25 -5 0 -11 -4 -15
-9z" />
        <path d="M5725 8630 c-8 -13 9 -20 24 -11 10 6 9 10 -3 14 -8 3 -18 2 -21 -3z" />
        <path d="M5802 8631 c2 -7 7 -12 11 -12 12 1 9 15 -3 20 -7 2 -11 -2 -8 -8z" />
        <path d="M7202 8628 c5 -15 28 -18 29 -3 0 6 -7 12 -17 13 -10 3 -15 -1 -12
-10z" />
        <path d="M7275 8631 c-3 -5 4 -13 16 -16 28 -9 36 1 10 14 -12 7 -22 7 -26 2z" />
        <path
            d="M3942 8610 c-12 -11 -28 -20 -36 -20 -21 0 -64 -41 -68 -65 -3 -19 3
-20 152 -23 85 -1 165 0 178 3 29 7 28 26 -4 64 -22 26 -33 31 -71 31 -26 0
-51 6 -59 15 -22 21 -66 19 -92 -5z" />
        <path d="M5860 8620 c0 -5 10 -10 23 -10 18 0 19 2 7 10 -19 13 -30 13 -30 0z" />
        <path d="M7140 8610 c0 -5 7 -7 15 -4 8 4 15 8 15 10 0 2 -7 4 -15 4 -8 0 -15
-4 -15 -10z" />
        <path d="M7340 8604 c0 -2 9 -8 20 -14 11 -6 20 -7 20 -2 0 6 -9 12 -20 15
-11 3 -20 3 -20 1z" />
        <path d="M7090 8590 c-8 -5 -11 -12 -7 -16 4 -4 13 -2 19 4 15 15 7 24 -12 12z" />
        <path d="M3587 8553 c-15 -14 -7 -43 12 -43 20 0 35 25 25 41 -6 11 -28 12
-37 2z" />
        <path d="M5967 8529 c4 -13 8 -18 11 -10 2 7 -1 18 -6 23 -8 8 -9 4 -5 -13z" />
        <path d="M7410 8536 c0 -8 5 -18 10 -21 6 -3 10 1 10 9 0 8 -4 18 -10 21 -5 3
-10 -1 -10 -9z" />
        <path d="M7036 8525 c-3 -8 -1 -15 4 -15 6 0 10 7 10 15 0 8 -2 15 -4 15 -2 0
-6 -7 -10 -15z" />
        <path
            d="M6147 8502 c-34 -37 -14 -95 36 -107 20 -5 32 -1 51 19 31 30 33 55
6 84 -25 27 -71 29 -93 4z m61 -50 c2 -14 -2 -22 -11 -22 -20 0 -26 9 -20 31
7 25 27 19 31 -9z" />
        <path d="M7420 8466 c0 -9 5 -16 10 -16 6 0 10 4 10 9 0 6 -4 13 -10 16 -5 3
-10 -1 -10 -9z" />
        <path
            d="M824 8445 c-4 -18 -13 -25 -31 -25 -13 0 -22 -4 -19 -9 3 -5 -17 -32
-45 -59 -28 -28 -48 -55 -45 -61 7 -10 20 -1 83 61 26 26 34 30 46 19 13 -10
15 -9 11 7 -6 21 20 49 31 32 15 -24 24 -7 10 19 -21 41 -33 46 -41 16z" />
        <path d="M5970 8461 c0 -6 5 -13 10 -16 6 -3 10 1 10 9 0 9 -4 16 -10 16 -5 0
-10 -4 -10 -9z" />
        <path
            d="M7020 8450 c0 -11 5 -20 10 -20 6 0 10 9 10 20 0 11 -4 20 -10 20 -5
0 -10 -9 -10 -20z" />
        <path
            d="M4765 8409 l-50 -17 0 -104 c0 -128 -5 -130 -116 -58 l-79 53 -48
-43 c-26 -24 -49 -45 -50 -46 -4 -3 33 -78 64 -131 15 -25 16 -37 8 -60 -9
-28 -10 -28 -79 -24 -144 8 -127 15 -146 -64 -9 -38 -15 -73 -12 -77 2 -4 37
-25 77 -47 123 -68 125 -86 16 -143 -106 -56 -104 -53 -84 -129 10 -35 21 -69
26 -75 8 -12 73 -5 144 15 35 10 41 9 57 -10 9 -12 17 -26 17 -33 0 -6 -20
-46 -45 -89 -39 -66 -44 -80 -34 -98 15 -29 3 -101 -23 -135 -37 -47 -72 -54
-255 -54 l-168 1 -29 65 c-39 87 -120 163 -201 188 -72 23 -180 18 -246 -11
-89 -40 -164 -128 -195 -228 -12 -42 -12 -45 5 -45 13 0 25 17 41 59 29 79 77
133 152 170 52 27 72 31 138 31 62 0 86 -5 127 -26 80 -39 139 -115 176 -226
6 -16 23 -18 175 -18 190 0 252 12 294 57 34 38 47 65 50 107 l3 35 27 -26 26
-25 29 19 c87 60 145 93 153 88 6 -4 10 -57 10 -120 l0 -113 50 -11 c28 -6 57
-11 64 -11 7 0 35 43 63 96 l51 97 37 -64 c20 -35 50 -80 66 -100 l29 -36 55
15 55 15 0 119 c0 65 2 118 5 118 3 0 43 -25 90 -56 l84 -56 55 48 55 49 -36
65 c-20 36 -42 73 -49 84 -9 14 -10 24 -2 42 13 29 41 30 138 9 36 -8 68 -14
71 -15 11 0 42 152 32 160 -4 5 -41 26 -82 47 -121 63 -121 80 3 148 48 26 86
53 86 61 0 8 -7 44 -16 79 l-16 65 -57 -6 c-31 -4 -75 -10 -99 -14 -36 -6 -44
-5 -52 11 -15 28 -13 36 35 122 25 44 42 83 38 87 -4 4 -29 26 -55 50 l-48 42
-86 -57 c-68 -46 -88 -55 -95 -44 -5 8 -8 59 -7 113 l3 99 -68 19 c-38 11 -70
18 -71 16 -1 -2 -21 -45 -46 -96 -34 -72 -47 -89 -56 -80 -6 7 -31 50 -54 96
-28 53 -49 82 -59 81 -9 -1 -38 -10 -66 -20z m318 -339 c75 -28 163 -109 208
-192 32 -60 34 -68 34 -163 0 -89 -3 -106 -26 -150 -43 -81 -103 -141 -177
-177 -61 -30 -74 -33 -162 -33 -129 1 -193 26 -275 109 -77 77 -106 138 -113
233 -12 179 94 332 268 388 60 20 169 13 243 -15z" />
        <path
            d="M1198 8372 c-20 -20 -38 -44 -39 -52 -5 -25 9 -54 32 -68 18 -12 25
-10 55 13 20 15 42 42 51 60 15 31 15 36 -1 59 -23 36 -54 32 -98 -12z m67
-11 c9 -15 -56 -84 -68 -72 -7 7 0 22 19 45 31 37 39 42 49 27z" />
        <path d="M5975 8397 c-4 -10 -5 -21 -1 -24 10 -10 18 4 13 24 -4 17 -4 17 -12
0z" />
        <path d="M6707 8395 c-5 -10 0 -15 14 -15 12 0 19 5 17 12 -6 18 -25 20 -31 3z" />
        <path d="M7420 8394 c0 -8 5 -12 10 -9 6 3 10 10 10 16 0 5 -4 9 -10 9 -5 0
-10 -7 -10 -16z" />
        <path d="M7025 8387 c-4 -10 -5 -21 -1 -24 10 -10 18 4 13 24 -4 17 -4 17 -12
0z" />
        <path d="M7415 8330 c3 -5 8 -10 11 -10 2 0 4 5 4 10 0 6 -5 10 -11 10 -5 0
-7 -4 -4 -10z" />
        <path
            d="M5970 8323 c0 -5 5 -15 10 -23 8 -12 10 -11 10 8 0 12 -4 22 -10 22
-5 0 -10 -3 -10 -7z" />
        <path
            d="M3585 8290 c-3 -5 3 -10 14 -10 12 0 21 5 21 10 0 6 -6 10 -14 10 -8
0 -18 -4 -21 -10z" />
        <path
            d="M3670 8290 c0 -5 9 -10 20 -10 11 0 20 5 20 10 0 6 -9 10 -20 10 -11
0 -20 -4 -20 -10z" />
        <path d="M3750 8291 c0 -6 9 -9 20 -8 11 1 20 5 20 9 0 4 -9 8 -20 8 -11 0
-20 -4 -20 -9z" />
        <path d="M3820 8290 c0 -5 7 -10 15 -10 8 0 15 5 15 10 0 6 -7 10 -15 10 -8 0
-15 -4 -15 -10z" />
        <path d="M3890 8290 c0 -5 7 -10 15 -10 8 0 15 5 15 10 0 6 -7 10 -15 10 -8 0
-15 -4 -15 -10z" />
        <path d="M3960 8290 c0 -5 7 -10 15 -10 8 0 15 5 15 10 0 6 -7 10 -15 10 -8 0
-15 -4 -15 -10z" />
        <path d="M4035 8290 c3 -5 10 -10 16 -10 5 0 9 5 9 10 0 6 -7 10 -16 10 -8 0
-12 -4 -9 -10z" />
        <path d="M4118 8288 c9 -9 15 -9 24 0 9 9 7 12 -12 12 -19 0 -21 -3 -12 -12z" />
        <path
            d="M4190 8290 c0 -5 9 -10 20 -10 11 0 20 5 20 10 0 6 -9 10 -20 10 -11
0 -20 -4 -20 -10z" />
        <path
            d="M4275 8290 c3 -5 12 -10 20 -10 8 0 17 5 20 10 4 6 -5 10 -20 10 -15
0 -24 -4 -20 -10z" />
        <path
            d="M4365 8290 c3 -5 13 -10 21 -10 8 0 14 5 14 10 0 6 -9 10 -21 10 -11
0 -17 -4 -14 -10z" />
        <path d="M5970 8251 c0 -6 5 -13 10 -16 6 -3 10 1 10 9 0 9 -4 16 -10 16 -5 0
-10 -4 -10 -9z" />
        <path
            d="M6602 8220 c-18 -11 -35 -26 -37 -33 -4 -9 -41 -11 -147 -9 -155 3
-179 -2 -224 -49 l-29 -30 -3 -420 -3 -419 -87 0 c-80 0 -91 3 -131 30 -24 17
-48 30 -53 30 -11 0 -10 -27 2 -35 30 -18 -1 -25 -116 -25 -114 0 -125 -2
-122 -17 3 -16 18 -18 127 -21 108 -2 121 -4 111 -18 -22 -26 0 -29 43 -7 31
16 65 22 134 25 l92 4 3 -178 3 -178 33 -32 32 -33 230 -3 230 -3 0 -150 c0
-126 -2 -149 -15 -149 -8 0 -15 -4 -15 -10 0 -5 7 -10 15 -10 13 0 15 -23 15
-150 l0 -150 -105 0 c-87 0 -105 -3 -105 -15 0 -12 18 -15 105 -15 l105 0 0
-156 c0 -173 -10 -212 -58 -234 -19 -8 -105 -12 -304 -11 -271 0 -278 0 -278
-20 0 -19 6 -20 289 -17 274 3 291 4 317 24 65 48 69 60 73 245 l3 169 74 0
c59 0 74 3 74 15 0 12 -15 15 -75 15 l-75 0 0 310 0 310 170 0 c187 0 221 7
258 55 21 27 22 35 22 326 l0 299 155 0 c148 0 155 1 155 20 0 19 -7 20 -155
20 l-155 0 0 283 c0 258 -2 285 -19 313 -33 54 -71 64 -235 64 -82 0 -146 4
-146 9 0 18 -68 51 -106 51 -22 0 -54 -9 -72 -20z m108 -40 c38 -38 16 -100
-35 -100 -54 0 -72 90 -22 110 32 13 35 12 57 -10z m-170 -89 l0 -49 -114 -4
c-174 -5 -156 59 -156 -565 0 -505 1 -524 19 -542 11 -11 35 -23 53 -26 18 -3
182 -5 364 -3 310 3 333 4 353 22 21 19 21 23 21 547 l0 528 -26 20 c-23 18
-41 21 -135 21 l-109 0 0 50 0 50 139 0 c135 0 139 -1 164 -25 24 -25 25 -31
31 -198 4 -95 6 -364 4 -599 l-3 -427 -23 -23 -23 -23 -420 -3 -420 -3 -29 30
-30 29 0 582 c0 618 0 622 47 649 10 6 80 11 156 11 l137 0 0 -49z m334 -367
c6 -16 -29 -57 -173 -206 -42 -43 -81 -78 -87 -78 -6 0 -37 27 -69 61 -54 56
-57 62 -41 77 15 15 20 13 65 -32 l48 -47 55 58 c30 32 80 86 113 121 60 64
78 74 89 46z m44 -550 c28 -19 28 -58 1 -85 -19 -19 -29 -20 -250 -17 -229 3
-231 3 -250 27 -24 30 -24 42 1 69 20 21 27 22 248 22 190 0 231 -3 250 -16z" />
        <path d="M7420 8198 c0 -12 3 -18 7 -14 11 10 12 36 2 36 -5 0 -9 -10 -9 -22z" />
        <path d="M5974 8179 c-3 -6 -1 -16 5 -22 8 -8 11 -5 11 11 0 24 -5 28 -16 11z" />
        <path
            d="M3583 8140 c-28 -11 -63 -67 -63 -98 0 -34 25 -77 53 -89 23 -11 25
-17 29 -113 5 -109 15 -132 72 -174 25 -19 44 -21 203 -24 167 -3 175 -4 170
-23 -7 -27 19 -24 76 10 l49 28 -29 20 c-31 23 -88 53 -99 53 -3 0 -3 -11 0
-25 l6 -25 -160 0 c-229 0 -250 15 -250 177 l0 88 33 15 c45 21 63 62 48 111
-18 58 -85 92 -138 69z" />
        <path d="M7420 8134 c0 -8 5 -12 10 -9 6 3 10 10 10 16 0 5 -4 9 -10 9 -5 0
-10 -7 -10 -16z" />
        <path d="M4045 8127 c-4 -10 -5 -21 -1 -24 10 -10 18 4 13 24 -4 17 -4 17 -12
0z" />
        <path d="M5974 8099 c-3 -6 -1 -16 5 -22 8 -8 11 -5 11 11 0 24 -5 28 -16 11z" />
        <path d="M7420 8058 c0 -19 2 -20 10 -8 13 19 13 30 0 30 -5 0 -10 -10 -10
-22z" />
        <path d="M4040 8060 c-12 -7 -12 -12 -3 -21 15 -15 26 -7 21 15 -2 11 -7 13
-18 6z" />
        <path
            d="M1120 8034 c-188 -68 -264 -273 -164 -439 32 -54 34 -63 34 -147 l0
-90 28 7 c15 3 59 21 97 40 49 23 88 35 130 37 111 7 205 73 254 177 69 149 4
323 -151 402 -57 29 -166 35 -228 13z m177 -39 c68 -20 146 -90 170 -153 40
-105 9 -233 -74 -301 -47 -38 -124 -65 -169 -58 -25 4 -50 -3 -103 -29 -38
-19 -75 -34 -82 -34 -9 0 -10 17 -5 66 6 63 6 67 -23 100 -31 34 -61 116 -61
164 0 64 31 134 80 182 75 72 165 93 267 63z" />
        <path
            d="M1155 7845 c-37 -36 -32 -83 13 -136 35 -41 57 -11 26 36 -28 43 -1
98 41 81 15 -5 16 -14 11 -54 -4 -26 -7 -62 -6 -81 1 -30 -1 -33 -24 -29 -34
7 -50 -5 -41 -31 5 -16 14 -21 38 -21 46 0 58 12 55 52 -1 20 5 47 14 60 15
23 22 53 19 89 -4 57 -101 80 -146 34z" />
        <path d="M5975 8021 c-3 -5 -1 -12 5 -16 5 -3 10 1 10 9 0 18 -6 21 -15 7z" />
        <path d="M7416 8011 c-4 -7 -5 -15 -2 -18 9 -9 19 4 14 18 -4 11 -6 11 -12 0z" />
        <path d="M4040 7990 c0 -5 5 -10 10 -10 6 0 10 5 10 10 0 6 -4 10 -10 10 -5 0
-10 -4 -10 -10z" />
        <path d="M5970 7941 c0 -6 5 -13 10 -16 6 -3 10 1 10 9 0 9 -4 16 -10 16 -5 0
-10 -4 -10 -9z" />
        <path d="M7365 7940 c-3 -5 1 -10 9 -10 9 0 16 5 16 10 0 6 -4 10 -9 10 -6 0
-13 -4 -16 -10z" />
        <path d="M7300 7920 c-13 -8 -12 -10 3 -10 9 0 17 5 17 10 0 12 -1 12 -20 0z" />
        <path d="M800 7869 c0 -5 5 -7 10 -4 6 3 10 8 10 11 0 2 -4 4 -10 4 -5 0 -10
-5 -10 -11z" />
        <path d="M5976 7871 c-4 -7 -5 -15 -2 -18 9 -9 19 4 14 18 -4 11 -6 11 -12 0z" />
        <path d="M750 7859 c0 -5 5 -7 10 -4 6 3 10 8 10 11 0 2 -4 4 -10 4 -5 0 -10
-5 -10 -11z" />
        <path d="M707 7843 c-4 -3 -7 -11 -7 -17 0 -6 5 -5 12 2 6 6 9 14 7 17 -3 3
-9 2 -12 -2z" />
        <path d="M665 7791 c-3 -5 -1 -12 5 -16 5 -3 10 1 10 9 0 18 -6 21 -15 7z" />
        <path d="M5970 7785 c0 -8 5 -15 10 -15 6 0 10 7 10 15 0 8 -4 15 -10 15 -5 0
-10 -7 -10 -15z" />
        <path d="M665 7750 c3 -5 8 -10 11 -10 2 0 4 5 4 10 0 6 -5 10 -11 10 -5 0 -7
-4 -4 -10z" />
        <path d="M660 7695 c0 -8 5 -15 10 -15 6 0 10 7 10 15 0 8 -4 15 -10 15 -5 0
-10 -7 -10 -15z" />
        <path d="M5967 7684 c-4 -4 -7 -14 -7 -23 0 -11 3 -12 11 -4 6 6 10 16 7 23
-2 6 -7 8 -11 4z" />
        <path d="M660 7615 c0 -8 5 -15 10 -15 6 0 10 7 10 15 0 8 -4 15 -10 15 -5 0
-10 -7 -10 -15z" />
        <path d="M5920 7610 c0 -5 5 -10 10 -10 6 0 10 5 10 10 0 6 -4 10 -10 10 -5 0
-10 -4 -10 -10z" />
        <path d="M5689 7569 c-10 -6 -7 -9 14 -9 29 0 35 5 14 13 -8 3 -20 1 -28 -4z" />
        <path d="M5827 7573 c-4 -3 -7 -11 -7 -17 0 -6 5 -5 12 2 6 6 9 14 7 17 -3 3
-9 2 -12 -2z" />
        <path d="M5870 7569 c0 -5 5 -7 10 -4 6 3 10 8 10 11 0 2 -4 4 -10 4 -5 0 -10
-5 -10 -11z" />
        <path d="M5760 7560 c0 -5 5 -10 10 -10 6 0 10 5 10 10 0 6 -4 10 -10 10 -5 0
-10 -4 -10 -10z" />
        <path
            d="M660 7540 c0 -11 5 -20 10 -20 6 0 10 9 10 20 0 11 -4 20 -10 20 -5
0 -10 -9 -10 -20z" />
        <path
            d="M7550 7542 c-48 -24 -47 -52 4 -71 30 -11 41 -12 44 -3 7 21 69 14
99 -12 l28 -24 3 -472 3 -472 -138 6 c-76 3 -238 9 -360 12 l-223 7 0 -253 0
-252 100 4 c114 4 117 1 75 -67 -13 -22 -25 -48 -25 -57 0 -23 26 -23 38 -2 6
12 11 -9 14 -67 8 -129 9 -1092 2 -1281 l-7 -168 -201 0 c-189 0 -205 -1 -246
-22 -33 -17 -51 -35 -67 -68 l-23 -44 0 -538 0 -538 -165 0 -165 0 6 25 c8 32
-3 32 -66 0 -27 -14 -60 -25 -72 -25 -13 0 -34 -7 -47 -16 -39 -28 -51 -73
-51 -199 0 -108 1 -115 20 -115 19 0 20 7 20 125 0 120 1 127 25 150 13 14 34
25 45 25 17 0 91 -28 123 -47 5 -3 7 5 5 18 l-3 24 163 3 162 2 0 -200 c0
-115 5 -220 11 -246 13 -52 61 -98 116 -113 24 -7 197 -10 453 -8 415 2 415 2
452 25 21 13 48 38 60 55 22 31 23 42 26 253 l3 221 46 7 c25 3 68 6 94 6 37
0 49 4 49 15 0 12 -14 15 -62 16 -35 1 -78 1 -95 0 l-33 -3 -1 539 c0 390 -3
547 -12 572 -7 19 -29 48 -50 65 l-39 31 -219 3 -219 3 0 765 0 764 25 -16
c23 -15 25 -15 25 0 0 9 -8 33 -19 54 -42 84 -45 81 71 79 l103 -2 3 215 c2
118 4 215 5 216 1 1 62 4 135 6 l132 3 0 -647 c0 -439 -4 -664 -11 -699 -20
-94 -119 -169 -223 -169 -16 0 -26 -6 -26 -15 0 -11 12 -15 48 -15 91 0 186
66 230 158 16 34 17 89 16 710 l-2 672 533 0 c294 0 540 3 549 6 14 6 16 -40
16 -473 0 -369 3 -482 13 -494 6 -7 -6 3 -28 24 -42 38 -65 47 -65 24 0 -7 23
-40 52 -74 l51 -62 49 62 c26 34 48 67 48 73 0 27 -17 22 -47 -13 l-32 -38 -1
138 c0 151 0 152 66 127 15 -6 29 -8 31 -6 3 3 -15 10 -39 17 -23 7 -46 18
-50 24 -4 5 -8 159 -8 340 l0 330 177 0 c161 0 178 2 181 18 3 16 -11 17 -177
17 l-181 0 0 63 0 64 63 17 c78 22 146 87 168 159 13 46 14 47 56 47 51 0 58
-2 58 -15 0 -5 5 -11 10 -13 11 -4 85 39 85 49 0 4 -21 21 -47 38 l-48 31 -3
-25 c-3 -22 -8 -25 -46 -25 l-42 0 -18 56 c-43 135 -191 216 -317 172 -86 -29
-142 -90 -170 -185 l-12 -43 -104 0 -103 0 0 65 0 65 -120 0 -120 0 0 -82 c0
-76 -1 -80 -17 -66 -26 22 -172 108 -183 108 -6 0 -10 -62 -10 -155 l0 -155
210 -1 c116 -1 216 -2 223 -3 9 -1 12 24 12 92 l0 92 108 0 c94 0 108 -2 113
-17 18 -55 31 -80 58 -111 29 -33 112 -82 140 -82 16 0 23 -41 17 -102 l-3
-38 -543 0 -543 0 -6 313 c-4 171 -6 380 -4 462 2 128 0 155 -15 182 -23 43
-57 64 -112 71 -39 4 -45 7 -40 23 8 23 0 23 -45 1z m1416 -557 c3 -8 -10 -33
-30 -58 l-35 -43 44 -38 c47 -38 56 -62 29 -73 -10 -4 -31 9 -59 37 l-43 42
-28 -31 c-21 -24 -30 -28 -41 -20 -7 6 -13 16 -13 21 0 12 152 177 163 178 4
0 10 -7 13 -15z m-1275 -2671 c60 -31 59 -10 59 -854 l0 -771 -39 -42 -40 -42
-438 0 c-422 0 -439 1 -465 20 -60 44 -59 27 -56 860 3 717 4 762 21 789 36
54 45 55 505 56 365 0 427 -2 453 -16z" />
        <path
            d="M6823 4180 c-12 -5 -27 -18 -32 -29 -8 -14 -10 -211 -9 -633 l3 -613
453 -3 452 -2 0 623 c0 621 0 624 -21 643 -20 18 -43 19 -423 21 -224 1 -411
-2 -423 -7z" />
        <path
            d="M6780 2797 c0 -71 14 -98 63 -124 28 -15 75 -18 350 -21 377 -5 415
-2 463 40 33 29 34 33 34 99 l0 69 -455 0 -455 0 0 -63z m501 -6 c16 -16 29
-37 29 -46 0 -24 -46 -65 -72 -65 -80 0 -94 105 -18 133 26 9 31 8 61 -22z" />
        <path d="M656 7455 c4 -8 10 -15 15 -15 5 0 9 7 9 15 0 8 -7 15 -15 15 -9 0
-12 -6 -9 -15z" />
        <path
            d="M9134 7418 c-4 -6 3 -19 16 -30 20 -16 21 -21 9 -29 -7 -5 -17 -9
-21 -9 -11 0 -10 -28 1 -35 6 -3 19 5 31 17 20 22 22 22 34 6 16 -22 46 -24
46 -3 0 8 -6 15 -14 15 -27 0 -29 22 -5 41 20 15 22 20 11 31 -11 11 -16 9
-30 -10 l-18 -23 -19 20 c-21 24 -31 26 -41 9z" />
        <path
            d="M626 7343 c-20 -32 -36 -64 -36 -70 0 -15 16 -17 25 -3 13 21 25 9
31 -30 5 -31 11 -40 26 -40 18 0 20 6 16 45 -3 43 4 57 17 35 8 -13 35 -13 35
0 0 10 -68 120 -74 120 -2 0 -19 -26 -40 -57z" />
        <path d="M1423 7383 c-18 -6 -16 -23 1 -23 17 0 30 16 19 23 -5 2 -14 2 -20 0z" />
        <path d="M1486 7382 c-3 -6 -1 -14 5 -17 15 -10 25 3 12 16 -7 7 -13 7 -17 1z" />
        <path d="M1625 7380 c-4 -6 3 -10 14 -10 25 0 27 6 6 13 -8 4 -17 2 -20 -3z" />
        <path d="M1770 7382 c0 -15 11 -21 27 -15 12 5 12 7 1 14 -17 11 -28 11 -28 1z" />
        <path d="M1840 7380 c0 -5 7 -10 15 -10 8 0 15 5 15 10 0 6 -7 10 -15 10 -8 0
-15 -4 -15 -10z" />
        <path d="M1920 7375 c0 -9 6 -12 15 -9 8 4 12 10 9 15 -8 14 -24 10 -24 -6z" />
        <path d="M1986 7375 c4 -8 10 -15 15 -15 5 0 9 7 9 15 0 8 -7 15 -15 15 -9 0
-12 -6 -9 -15z" />
        <path d="M2050 7375 c0 -10 7 -15 18 -13 21 4 19 22 -2 26 -10 2 -16 -3 -16
-13z" />
        <path d="M2120 7374 c0 -9 5 -14 12 -12 18 6 21 28 4 28 -9 0 -16 -7 -16 -16z" />
        <path
            d="M2260 7380 c0 -5 11 -10 25 -10 14 0 25 5 25 10 0 6 -11 10 -25 10
-14 0 -25 -4 -25 -10z" />
        <path
            d="M2355 7380 c-4 -6 5 -10 20 -10 15 0 24 4 20 10 -3 6 -12 10 -20 10
-8 0 -17 -4 -20 -10z" />
        <path
            d="M2512 7383 c-24 -10 0 -23 44 -23 32 0 44 4 44 15 0 11 -10 15 -37
14 -21 0 -44 -3 -51 -6z" />
        <path
            d="M1340 7370 c0 -5 6 -10 14 -10 8 0 18 5 21 10 3 6 -3 10 -14 10 -12
0 -21 -4 -21 -10z" />
        <path
            d="M1550 7370 c0 -5 6 -10 14 -10 8 0 18 5 21 10 3 6 -3 10 -14 10 -12
0 -21 -4 -21 -10z" />
        <path d="M1708 7373 c7 -3 16 -2 19 1 4 3 -2 6 -13 5 -11 0 -14 -3 -6 -6z" />
        <path d="M2195 7370 c4 -6 11 -8 16 -5 14 9 11 15 -7 15 -8 0 -12 -5 -9 -10z" />
        <path d="M8522 7349 c2 -6 8 -10 13 -10 5 0 11 4 13 10 2 6 -4 11 -13 11 -9 0
-15 -5 -13 -11z" />
        <path
            d="M2833 7275 c-34 -24 -47 -76 -29 -118 16 -40 41 -57 85 -57 38 0 89
45 92 80 3 46 -1 57 -27 84 -31 30 -86 35 -121 11z m109 -48 c15 -24 7 -56
-18 -76 -33 -26 -49 -26 -74 -1 -27 27 -25 56 4 85 22 22 29 23 53 14 15 -5
31 -16 35 -22z" />
        <path
            d="M1961 7201 c-9 -16 -7 -21 9 -26 26 -8 26 -31 0 -45 -11 -6 -20 -15
-20 -21 0 -6 7 -6 19 1 31 16 59 12 76 -12 16 -22 17 -23 28 -4 7 11 22 30 35
42 l24 23 -34 30 c-18 17 -36 31 -39 31 -4 0 -14 -11 -23 -25 -18 -27 -36 -33
-36 -11 0 7 -6 19 -14 25 -12 10 -17 8 -25 -8z m126 -26 c7 -20 -24 -55 -43
-48 -19 7 -18 22 3 45 20 22 32 23 40 3z" />
        <path
            d="M3470 7140 c0 -6 7 -25 16 -43 29 -56 156 -277 160 -277 1 0 24 39
50 88 26 48 65 118 87 155 26 46 36 72 29 79 -10 10 -78 -96 -138 -213 -14
-28 -28 -49 -30 -46 -3 3 -38 63 -78 133 -66 116 -96 155 -96 124z" />
        <path
            d="M1982 7068 c-17 -17 -15 -24 7 -24 11 0 17 4 15 8 -3 4 2 8 10 8 9 0
16 5 16 10 0 14 -33 13 -48 -2z" />
        <path
            d="M5770 7011 c0 -24 -4 -31 -20 -31 -13 0 -20 -7 -20 -20 0 -13 7 -20
20 -20 17 0 20 -7 20 -41 0 -33 3 -40 18 -37 12 2 18 14 20 41 3 29 7 37 23
37 12 0 19 7 19 20 0 14 -7 20 -23 20 -18 0 -23 5 -22 27 0 18 -6 29 -17 31
-14 3 -18 -3 -18 -27z" />
        <path
            d="M1125 6999 c-132 -22 -253 -86 -355 -188 -312 -313 -232 -847 157
-1049 93 -48 166 -70 248 -76 l60 -4 3 -35 c2 -19 -6 -61 -17 -93 -19 -58 -19
-86 2 -65 18 18 27 13 28 -16 l0 -28 12 25 c6 14 12 26 13 28 1 2 12 -1 23 -8
27 -14 28 3 2 63 -11 25 -21 64 -23 88 l-3 44 60 7 c239 31 449 202 525 429
98 291 -8 606 -261 775 -84 56 -149 82 -249 100 -83 15 -150 16 -225 3z m185
-256 c0 -46 6 -56 47 -77 42 -21 43 -21 89 17 l39 34 54 -59 53 -58 -31 -36
c-33 -37 -34 -49 -4 -106 12 -25 19 -28 63 -28 56 0 55 2 44 -97 l-7 -51 -48
-7 c-47 -7 -48 -8 -65 -57 l-16 -50 30 -31 c36 -38 33 -47 -31 -100 l-44 -36
-41 34 -40 35 -44 -25 c-38 -22 -44 -29 -48 -67 l-5 -43 -67 -3 -68 -3 0 46
c0 45 -1 46 -47 66 l-47 20 -43 -32 -44 -31 -52 49 c-28 26 -50 53 -49 58 2 6
17 24 34 41 29 31 29 32 14 62 -9 17 -16 37 -16 45 0 10 -17 17 -55 22 l-55 6
0 73 0 74 31 6 c17 3 41 6 53 6 18 0 24 9 34 47 12 44 12 47 -13 73 -14 14
-25 32 -25 39 0 16 82 111 96 111 6 0 17 -7 25 -16 7 -8 25 -22 40 -29 24 -13
32 -12 68 3 40 16 41 18 41 65 l0 47 75 0 75 0 0 -37z" />
        <path
            d="M4913 6866 c-18 -30 -33 -61 -33 -70 0 -15 2 -15 25 0 23 15 25 15
26 0 1 -9 3 -20 4 -26 1 -5 3 -26 4 -45 1 -29 5 -35 22 -35 20 0 21 4 17 64
l-4 64 24 -19 c30 -23 46 -16 31 14 -21 39 -70 107 -77 107 -4 0 -22 -25 -39
-54z" />
        <path
            d="M5380 6859 c-6 -11 -10 -30 -8 -42 2 -18 10 -22 37 -22 38 0 54 25
40 63 -11 29 -54 30 -69 1z m50 -19 c0 -11 -6 -20 -14 -20 -9 0 -12 7 -9 20 3
11 9 20 14 20 5 0 9 -9 9 -20z" />
        <path
            d="M2860 6684 c0 -92 -3 -114 -12 -107 -19 15 -118 46 -125 39 -6 -6 -4
-118 2 -124 2 -2 58 18 118 43 16 7 17 -3 17 -119 l0 -126 1040 0 1040 0 0
-85 c0 -47 -2 -85 -5 -85 -3 0 -49 -5 -103 -11 -323 -35 -602 -174 -835 -418
l-69 -71 -189 0 c-182 0 -189 -1 -189 -20 0 -19 8 -20 175 -22 l175 -3 -36
-50 c-123 -173 -224 -461 -224 -644 0 -81 -7 -91 -55 -91 -29 0 -47 6 -60 20
-10 11 -23 20 -29 20 -7 0 -19 -9 -29 -20 -12 -15 -29 -20 -66 -20 l-48 0 -12
59 c-27 137 -129 265 -248 312 -83 33 -233 33 -315 0 -120 -47 -227 -187 -243
-316 -6 -48 -10 -55 -30 -55 -15 0 -25 7 -28 21 -6 21 -6 21 -46 -7 -40 -29
-53 -54 -27 -54 7 0 25 -10 40 -21 l27 -21 6 21 c3 13 13 21 28 21 19 0 23 -7
28 -40 7 -58 58 -158 106 -212 63 -70 172 -122 269 -127 95 -4 183 19 261 69
87 56 147 148 170 260 l12 56 61 -6 c34 -3 63 -11 66 -18 5 -17 32 -15 38 3 5
11 22 15 65 15 l59 0 0 -64 c0 -177 72 -412 176 -577 l23 -37 -84 -333 c-47
-183 -85 -336 -85 -340 0 -7 407 126 543 178 l69 25 106 -50 c165 -78 268
-106 510 -138 l32 -5 0 -94 c0 -95 5 -110 34 -99 13 5 16 23 16 99 l0 93 83 7
c359 28 635 153 883 399 235 233 369 524 391 849 l6 87 58 0 c45 0 59 -4 59
-14 0 -26 21 -29 51 -7 24 18 42 21 134 21 87 0 105 3 105 15 0 12 -17 15 -96
15 -85 0 -99 3 -132 25 -44 30 -62 32 -62 5 0 -18 -7 -20 -59 -20 l-58 0 -6
88 c-31 427 -286 828 -672 1057 -184 109 -352 159 -607 181 l-78 6 0 84 0 84
120 0 c100 0 120 3 120 15 0 13 -20 15 -120 15 l-120 0 0 170 c0 163 -1 170
-20 170 -19 0 -20 -8 -22 -167 l-3 -168 -795 -3 c-437 -2 -841 0 -897 3 l-103
7 0 214 0 214 100 0 c93 0 100 1 100 20 0 19 -7 20 -240 20 l-240 0 0 -116z
m2290 -939 c116 -17 187 -41 296 -99 247 -132 435 -366 505 -633 27 -101 36
-295 19 -401 -53 -335 -274 -617 -588 -752 -134 -57 -201 -72 -357 -77 -197
-7 -309 15 -472 94 -65 32 -77 35 -106 25 -17 -6 -144 -49 -280 -95 -224 -77
-247 -83 -241 -63 4 11 40 149 80 306 l72 285 -19 44 c-51 117 -64 196 -63
386 0 166 3 187 28 269 29 96 88 221 139 295 47 68 174 198 242 247 212 151
475 211 745 169z m-2026 -749 l29 -24 -33 -58 c-30 -53 -32 -66 -37 -175 l-6
-118 -158 -3 -159 -3 0 133 0 132 91 0 91 0 72 70 c39 38 73 70 76 69 3 0 18
-10 34 -23z" />
        <path d="M5530 5326 c0 -2 8 -10 18 -17 15 -13 16 -12 3 4 -13 16 -21 21 -21
13z" />
        <path
            d="M5603 5247 c4 -10 7 -23 7 -28 0 -6 4 -8 8 -5 13 8 43 -50 36 -68 -4
-10 1 -19 12 -23 11 -5 19 -12 20 -18 1 -23 18 -70 27 -76 6 -4 6 -13 -1 -24
-8 -16 -11 -14 -17 13 -3 18 -11 30 -16 26 -5 -3 -9 0 -9 5 0 15 -27 14 -32
-1 -3 -9 -9 -8 -22 4 -25 25 -44 15 -142 -79 -32 -32 -37 -33 -114 -33 -47 0
-80 -4 -80 -10 0 -5 -18 -10 -40 -10 -22 0 -40 5 -40 10 0 6 -20 10 -45 10
-25 0 -45 4 -45 8 0 4 -32 8 -70 7 -46 -1 -74 3 -81 12 -9 10 -14 10 -25 -2
-22 -21 -43 -8 -51 33 -4 21 -6 40 -5 44 1 3 -5 12 -13 18 -22 19 -19 -8 10
-85 l24 -65 -59 -38 c-33 -20 -59 -41 -57 -46 4 -12 28 -21 26 -9 -3 19 2 23
19 14 21 -11 48 1 38 17 -3 6 -3 13 2 16 5 3 8 -8 8 -24 0 -16 -4 -27 -8 -24
-5 3 -16 0 -25 -8 -14 -11 -16 -11 -9 1 6 9 5 12 -5 9 -8 -3 -13 -11 -11 -17
1 -8 -2 -9 -10 -5 -20 12 33 -70 74 -114 47 -52 127 -115 165 -131 30 -12 32
-11 81 38 76 76 86 76 195 -7 124 -96 147 -116 147 -129 0 -24 -98 -108 -158
-136 -58 -27 -70 -29 -146 -25 -75 4 -93 9 -177 51 -153 76 -317 241 -394 396
-46 94 -56 131 -65 240 l-8 96 3 -121 c1 -69 8 -130 14 -143 14 -25 7 -56 -9
-46 -5 3 -10 17 -10 30 0 29 -17 42 -23 18 -3 -10 -3 2 -1 27 3 34 2 39 -5 20
l-8 -25 -7 30 c-4 17 -14 42 -22 57 -8 14 -14 33 -14 42 0 9 -4 16 -10 16 -5
0 -10 -4 -10 -10 0 -5 -16 -10 -35 -10 -19 0 -35 -5 -35 -11 0 -6 -6 -9 -14
-6 -8 3 -17 1 -19 -6 -2 -7 -12 3 -22 22 -16 31 -19 33 -30 18 -14 -20 -35
-22 -35 -4 -1 6 -8 -6 -16 -28 -8 -22 -17 -89 -20 -150 -7 -132 8 -216 61
-338 19 -46 35 -90 35 -98 0 -9 -9 -42 -20 -73 -11 -32 -33 -107 -49 -168 -26
-95 -28 -109 -13 -103 9 4 84 30 166 58 121 41 151 48 165 38 77 -57 269 -122
396 -135 70 -7 225 14 305 42 228 79 412 258 488 474 77 218 64 436 -38 638
-28 55 -99 151 -87 117z m64 -279 c-3 -8 -6 -5 -6 6 -1 11 2 17 5 13 3 -3 4
-12 1 -19z m-715 -26 c-7 -2 -12 -15 -12 -28 0 -16 -6 -24 -17 -24 -11 0 -14
3 -7 8 6 4 14 20 18 35 4 18 11 25 18 21 9 -6 9 -9 0 -12z m-699 1 c-7 -2 -13
-12 -13 -20 0 -9 -3 -14 -6 -10 -10 10 4 37 18 36 10 0 10 -2 1 -6z m-16 -115
c-3 -8 -6 -5 -6 6 -1 11 2 17 5 13 3 -3 4 -12 1 -19z m631 -93 c-3 -3 -9 2
-12 12 -6 14 -5 15 5 6 7 -7 10 -15 7 -18z" />
        <path d="M4349 5223 c-13 -16 -12 -17 4 -4 16 13 21 21 13 21 -2 0 -10 -8 -17
-17z" />
        <path d="M4821 5129 c0 -8 4 -23 9 -34 8 -17 9 -16 7 7 -3 28 -18 53 -16 27z" />
        <path d="M4246 5053 c-6 -14 -5 -15 5 -6 7 7 10 15 7 18 -3 3 -9 -2 -12 -12z" />
        <path d="M4492 4910 c0 -14 2 -19 5 -12 2 6 2 18 0 25 -3 6 -5 1 -5 -13z" />
        <path d="M2790 4819 c0 -14 5 -19 17 -17 26 5 29 38 4 38 -15 0 -21 -6 -21
-21z" />
        <path d="M4433 6733 c-20 -8 -15 -23 7 -23 11 0 20 7 20 15 0 15 -6 17 -27 8z" />
        <path
            d="M3952 6639 c-21 -6 -43 -24 -61 -52 -16 -23 -44 -56 -61 -73 l-32
-31 30 -6 c20 -4 37 -18 52 -43 45 -72 109 -91 187 -53 106 51 111 212 8 255
-39 16 -74 17 -123 3z m80 -86 c10 -9 18 -26 18 -37 0 -29 -36 -86 -55 -86
-20 0 -20 44 0 60 21 17 19 37 -5 45 -11 3 -20 13 -20 21 0 19 39 18 62 -3z" />
        <path d="M1960 6610 c0 -5 7 -10 15 -10 8 0 15 5 15 10 0 6 -7 10 -15 10 -8 0
-15 -4 -15 -10z" />
        <path
            d="M6207 6562 c-24 -26 -21 -55 7 -82 29 -26 48 -22 72 15 16 25 16 27
-3 53 -25 33 -54 39 -76 14z m51 -30 c2 -13 -3 -25 -13 -28 -22 -9 -29 1 -21
31 8 31 30 28 34 -3z" />
        <path
            d="M5770 6558 c0 -9 -8 -19 -17 -22 -14 -6 -13 -9 7 -23 17 -12 25 -13
28 -5 5 15 32 16 32 2 0 -6 8 -5 20 2 24 15 26 28 5 28 -8 0 -15 8 -15 18 -1
16 -1 16 -14 0 -12 -16 -14 -16 -29 0 -15 15 -17 15 -17 0z" />
        <path d="M2090 6536 c0 -8 5 -18 10 -21 6 -3 10 1 10 9 0 8 -4 18 -10 21 -5 3
-10 -1 -10 -9z" />
        <path
            d="M5364 6498 c14 -20 14 -24 -1 -40 -21 -24 -9 -36 15 -15 17 15 19 15
35 0 21 -22 32 -11 16 15 -11 18 -10 24 5 41 17 18 17 21 3 21 -9 0 -21 -8
-26 -17 -10 -17 -12 -17 -25 0 -20 26 -41 22 -22 -5z" />
        <path d="M2105 6481 c-3 -5 -1 -12 5 -16 5 -3 10 1 10 9 0 18 -6 21 -15 7z" />
        <path
            d="M6150 6481 c0 -14 79 -81 95 -81 18 0 103 76 94 84 -3 3 -25 -12 -49
-35 l-43 -41 -41 41 c-42 41 -56 49 -56 32z" />
        <path d="M2100 6411 c0 -5 5 -13 10 -16 6 -3 10 -2 10 4 0 5 -4 13 -10 16 -5
3 -10 2 -10 -4z" />
        <path d="M2106 6341 c-4 -5 -2 -12 3 -15 5 -4 12 -2 15 3 4 5 2 12 -3 15 -5 4
-12 2 -15 -3z" />
        <path d="M2105 6270 c3 -5 10 -10 16 -10 5 0 9 5 9 10 0 6 -7 10 -16 10 -8 0
-12 -4 -9 -10z" />
        <path
            d="M8260 6218 c1 -17 79 -103 86 -95 3 3 -8 21 -25 39 -17 18 -31 41
-31 51 0 9 -7 17 -15 17 -8 0 -15 -6 -15 -12z" />
        <path
            d="M6200 6202 c0 -11 -8 -23 -17 -25 -17 -4 -17 -5 0 -6 9 0 17 -5 17
-11 0 -17 18 -11 22 7 3 15 4 15 20 -1 16 -15 20 -16 38 -3 18 12 18 15 5 20
-8 4 -15 1 -15 -5 0 -6 -3 -8 -6 -5 -4 4 -1 14 7 23 13 16 11 17 -14 10 -18
-4 -34 -2 -43 5 -11 9 -14 7 -14 -9z" />
        <path d="M2105 6190 c4 -6 11 -8 16 -5 14 9 11 15 -7 15 -8 0 -12 -5 -9 -10z" />
        <path d="M8330 6185 c0 -9 6 -12 15 -9 8 4 15 10 15 15 0 5 -7 9 -15 9 -8 0
-15 -7 -15 -15z" />
        <path d="M8210 6177 c0 -21 12 -28 27 -16 19 16 16 29 -7 29 -11 0 -20 -6 -20
-13z" />
        <path
            d="M6910 6165 c0 -11 11 -15 40 -15 29 0 40 4 40 15 0 11 -11 15 -40 15
-29 0 -40 -4 -40 -15z" />
        <path d="M2105 6137 c-4 -10 -5 -21 -1 -24 10 -10 18 4 13 24 -4 17 -4 17 -12
0z" />
        <path d="M8263 6135 c-3 -9 -3 -18 0 -21 9 -9 27 6 27 22 0 19 -19 18 -27 -1z" />
        <path
            d="M5914 6092 c2 -38 32 -80 47 -65 8 8 5 15 -14 28 -16 10 -23 22 -20
34 3 10 0 21 -5 25 -5 3 -9 -6 -8 -22z" />
        <path
            d="M9132 6095 c5 -21 2 -25 -13 -20 -11 4 -19 2 -19 -4 0 -6 6 -11 14
-11 8 0 17 -8 19 -17 3 -13 5 -11 6 6 1 16 5 21 16 18 8 -4 17 -2 20 3 4 6 -1
10 -9 10 -9 0 -16 9 -16 20 0 11 -5 20 -11 20 -7 0 -9 -10 -7 -25z" />
        <path
            d="M2781 6051 c-30 -25 -33 -31 -27 -63 18 -98 136 -97 161 1 5 18 -2
32 -26 57 -40 41 -63 42 -108 5z m84 -27 c13 -21 15 -31 6 -50 -21 -47 -91
-21 -76 28 17 54 44 62 70 22z" />
        <path d="M2100 6055 c0 -8 5 -15 10 -15 6 0 10 7 10 15 0 8 -4 15 -10 15 -5 0
-10 -7 -10 -15z" />
        <path
            d="M3500 6046 c-7 -15 -24 -29 -36 -32 l-22 -6 19 -33 c12 -19 17 -40
12 -50 -5 -15 -3 -17 13 -10 24 10 43 11 69 2 19 -6 21 -4 17 26 -2 22 2 38
12 46 22 18 20 26 -6 28 -12 1 -31 14 -43 28 l-21 27 -14 -26z" />
        <path
            d="M3160 6040 c-6 -11 -22 -23 -35 -26 l-25 -6 18 -32 c10 -17 17 -39
15 -48 -5 -21 8 -23 25 -6 9 9 18 9 37 0 35 -16 35 -16 35 13 0 14 7 37 16 50
16 24 16 25 -8 25 -17 0 -29 8 -36 25 -14 30 -28 32 -42 5z" />
        <path
            d="M3931 6036 c-7 -8 -11 -27 -9 -43 2 -23 8 -29 35 -31 27 -3 35 1 45
22 9 22 8 29 -7 46 -21 24 -48 26 -64 6z" />
        <path d="M2102 5979 c2 -6 8 -10 13 -10 5 0 11 4 13 10 2 6 -4 11 -13 11 -9 0
-15 -5 -13 -11z" />
        <path
            d="M8033 5965 c-12 -8 -27 -31 -33 -51 -31 -94 76 -164 150 -96 44 39
50 89 15 130 -22 27 -34 32 -69 32 -23 0 -51 -7 -63 -15z m97 -35 c33 -33 24
-72 -23 -97 -30 -15 -32 -15 -54 11 -29 34 -29 53 -1 83 26 28 52 29 78 3z" />
        <path d="M2100 5915 c0 -8 7 -15 15 -15 8 0 15 4 15 9 0 5 -7 11 -15 15 -9 3
-15 0 -15 -9z" />
        <path d="M2100 5841 c0 -6 5 -13 10 -16 6 -3 10 1 10 9 0 9 -4 16 -10 16 -5 0
-10 -4 -10 -9z" />
        <path d="M2100 5776 c0 -9 5 -16 10 -16 6 0 10 4 10 9 0 6 -4 13 -10 16 -5 3
-10 -1 -10 -9z" />
        <path
            d="M8725 5732 c-41 -25 -125 -107 -125 -121 0 -7 19 8 42 34 23 25 62
59 86 75 49 32 46 42 -3 12z" />
        <path d="M2100 5696 c0 -9 7 -16 16 -16 9 0 14 5 12 12 -6 18 -28 21 -28 4z" />
        <path d="M2100 5621 c0 -17 18 -21 24 -6 3 9 0 15 -9 15 -8 0 -15 -4 -15 -9z" />
        <path
            d="M3446 5605 c-7 -19 12 -28 51 -23 17 2 29 10 31 21 3 14 -4 17 -36
17 -27 0 -42 -5 -46 -15z" />
        <path d="M2075 5550 c-6 -9 18 -53 31 -57 10 -3 34 37 34 58 0 10 -59 9 -65
-1z" />
        <path d="M9183 5480 c0 -25 2 -35 4 -22 2 12 2 32 0 45 -2 12 -4 2 -4 -23z" />
        <path
            d="M6742 5466 c-33 -31 -37 -40 -37 -83 0 -30 9 -65 23 -93 32 -63 96
-135 111 -125 26 16 101 129 112 168 24 90 -32 167 -122 167 -42 0 -55 -5 -87
-34z m140 -20 c48 -36 41 -119 -14 -189 l-31 -38 -33 32 c-40 39 -69 108 -60
143 14 57 93 87 138 52z" />
        <path
            d="M8376 5454 c-17 -45 2 -171 38 -250 28 -60 119 -160 136 -149 8 5 -4
24 -37 59 -27 28 -57 63 -65 77 -28 45 -48 131 -48 206 0 69 -10 93 -24 57z" />
        <path
            d="M9358 5363 c-3 -81 -8 -108 -30 -156 -30 -64 -122 -167 -149 -167
-24 0 -32 -15 -16 -28 17 -14 136 92 172 152 38 65 58 158 50 233 -4 34 -10
63 -15 63 -4 0 -10 -44 -12 -97z" />
        <path
            d="M1240 5166 l0 -275 -207 -3 c-195 -3 -211 -4 -253 -26 -50 -26 -79
-57 -113 -117 l-22 -40 0 -696 0 -695 30 -59 c33 -65 99 -123 163 -144 21 -7
118 -15 220 -18 l182 -6 0 -178 c0 -162 7 -208 24 -163 3 9 6 90 6 180 l0 164
474 0 474 0 4 -227 c4 -255 11 -286 79 -350 70 -65 41 -63 968 -63 461 0 872
-3 914 -6 69 -6 75 -9 67 -25 -21 -38 0 -40 52 -4 29 20 49 25 98 25 59 0 60
0 54 -25 -8 -32 7 -32 54 0 29 20 49 25 98 25 75 0 74 2 74 -152 l0 -108 130
0 130 0 0 -57 c0 -46 -6 -68 -30 -108 -16 -27 -30 -58 -30 -69 0 -17 2 -17 24
-3 23 16 23 16 30 -36 3 -29 6 -101 6 -160 0 -69 5 -119 14 -140 16 -39 61
-82 99 -96 19 -8 254 -11 716 -11 l687 0 35 -26 c66 -49 71 -50 63 -10 l-6 36
110 0 109 0 7 -37 c8 -51 39 -99 78 -123 30 -18 51 -20 211 -20 158 0 182 -2
217 -20 36 -18 59 -20 261 -20 205 0 224 2 254 20 43 26 69 89 60 143 -9 51
-72 117 -112 117 -24 0 -32 8 -53 52 -35 73 -66 93 -146 93 -56 0 -64 2 -64
18 0 18 -52 79 -75 88 -5 2 -21 26 -35 53 -61 122 -231 152 -339 59 -51 -43
-78 -93 -87 -161 -5 -42 -10 -51 -31 -57 -37 -9 -106 -85 -122 -132 l-14 -43
-114 0 -115 0 7 42 c8 48 11 48 -63 -15 l-33 -28 -692 3 -692 3 -33 23 c-59
43 -66 69 -69 251 l-3 165 23 -22 c46 -44 50 -18 9 65 -24 48 -28 68 -24 111
l4 52 123 0 122 0 7 46 c3 26 6 84 6 130 l0 84 63 0 c45 -1 75 -7 112 -25 62
-31 80 -32 65 -6 -5 11 -10 22 -10 26 0 3 106 5 235 5 l235 -1 0 -52 c0 -61
14 -117 32 -129 19 -12 326 -10 349 2 18 10 19 23 19 166 0 88 -4 164 -10 175
-10 18 -23 19 -185 19 -199 0 -188 5 -200 -93 l-7 -58 -210 2 c-256 2 -260 3
-251 37 l6 25 -58 -31 c-48 -26 -70 -32 -122 -32 l-63 0 0 125 0 125 -130 0
-130 0 0 240 c0 233 -1 240 -20 240 -19 0 -20 -7 -20 -97 0 -54 -3 -162 -7
-240 l-6 -143 -126 0 -126 0 0 -122 0 -123 -59 -3 c-52 -3 -64 1 -100 26 -70
49 -70 49 -63 14 l7 -32 -61 0 c-48 0 -68 5 -97 25 -46 32 -56 31 -48 0 l7
-26 -923 3 c-1026 3 -962 -1 -1025 71 -18 20 -37 53 -42 74 -6 21 -11 133 -11
251 l0 212 243 0 c134 0 278 3 320 6 l77 7 0 433 c0 379 -2 434 -15 434 -13 0
-15 -53 -15 -420 l0 -420 -305 0 -306 0 3 258 c3 253 3 259 28 307 20 39 39
59 90 90 35 22 85 60 111 85 59 57 69 100 69 295 0 138 -1 145 -20 145 -19 0
-20 -7 -20 -167 0 -204 -8 -223 -110 -291 -110 -72 -131 -93 -159 -151 -26
-55 -26 -59 -29 -313 l-3 -258 -470 0 -469 0 -1 48 c-2 73 -3 76 -21 80 -16 3
-18 -5 -18 -62 l0 -66 -160 0 c-87 0 -182 5 -210 11 -70 15 -128 62 -165 134
l-30 59 0 675 0 676 31 54 c23 42 43 62 84 85 l53 30 199 4 198 5 0 -131 c0
-122 7 -158 28 -137 4 4 8 65 10 136 l4 129 534 0 c468 0 534 2 534 15 0 13
-66 15 -535 15 l-535 0 -2 128 c-2 70 -3 192 -3 272 0 130 -2 145 -17 148 -17
3 -18 -15 -18 -272z m4968 -2723 l3 -83 -76 0 -75 0 0 85 0 86 73 -3 72 -3 3
-82z m-1276 66 c15 -8 22 -8 27 0 4 7 26 8 59 4 l52 -6 0 -38 c0 -28 -8 -47
-30 -72 -42 -49 -80 -63 -116 -44 -34 18 -81 66 -85 87 -12 59 40 97 93 69z
m1366 -78 c2 -13 -2 -27 -9 -32 -20 -12 -49 9 -49 37 0 22 4 25 28 22 20 -2
28 -9 30 -27z m943 -590 c24 -24 29 -38 29 -75 0 -39 -3 -46 -19 -46 -16 0
-20 8 -23 42 -2 33 -8 45 -27 54 -13 7 -30 10 -37 7 -15 -5 -34 -56 -34 -90 0
-21 -3 -22 -20 -13 -15 8 -20 21 -20 51 0 52 43 99 90 99 22 0 41 -9 61 -29z
m-26 -131 c10 -11 26 -22 35 -25 20 -6 38 -46 41 -90 4 -68 10 -65 -111 -65
l-110 0 0 48 c0 63 9 90 30 97 10 3 30 17 46 30 35 30 46 31 69 5z m350 -96
c18 -7 45 -55 45 -82 0 -10 -6 -24 -12 -30 -10 -10 -15 -5 -23 24 -19 70 -75
68 -75 -2 0 -36 -23 -48 -34 -18 -25 66 35 132 99 108z m54 -194 c19 -60 19
-60 -79 -60 l-90 0 1 28 c1 43 12 62 55 92 l39 27 32 -26 c17 -14 37 -42 42
-61z" />
        <path
            d="M8585 5410 c4 -7 8 -25 7 -41 0 -15 8 -35 19 -45 10 -9 19 -25 19
-35 0 -16 39 -53 47 -45 2 2 -7 21 -22 41 -26 39 -29 47 -26 78 1 9 -4 17 -13
17 -9 0 -16 6 -16 14 0 8 -5 18 -12 22 -7 5 -8 3 -3 -6z" />
        <path
            d="M749 5381 c-47 -47 -31 -125 30 -150 58 -24 131 25 131 88 0 85 -100
123 -161 62z m106 -26 c30 -29 31 -35 4 -69 -38 -48 -99 -28 -99 33 0 19 43
61 62 61 5 0 20 -11 33 -25z" />
        <path
            d="M2435 5380 c-4 -6 4 -21 16 -34 l23 -24 25 24 c19 20 22 27 12 37
-10 9 -15 8 -26 -7 -13 -17 -15 -17 -21 -3 -7 19 -20 22 -29 7z" />
        <path d="M9165 5370 c-3 -5 -1 -10 4 -10 6 0 11 5 11 10 0 6 -2 10 -4 10 -3 0
-8 -4 -11 -10z" />
        <path d="M9146 5327 c-11 -43 -6 -53 14 -28 24 28 25 37 6 44 -9 4 -16 -3 -20
-16z" />
        <path d="M8872 5288 c6 -18 28 -21 28 -4 0 9 -7 16 -16 16 -9 0 -14 -5 -12
-12z" />
        <path
            d="M1725 5279 c4 -5 -1 -19 -10 -29 -24 -26 -16 -64 14 -68 13 -2 28 2
32 10 15 22 10 64 -9 81 -21 19 -37 23 -27 6z" />
        <path d="M9107 5263 c-13 -12 -7 -33 8 -33 8 0 15 9 15 20 0 20 -11 26 -23 13z" />
        <path
            d="M8720 5226 c0 -9 -4 -16 -10 -16 -5 0 -10 5 -10 11 0 8 -5 8 -15 -1
-9 -7 -12 -18 -7 -26 9 -16 74 -65 79 -60 8 8 -18 57 -27 51 -13 -8 -13 18 1
32 8 8 8 13 0 17 -6 4 -11 0 -11 -8z" />
        <path
            d="M8879 5238 c0 -2 -1 -23 -2 -48 -2 -62 17 -62 21 0 2 30 -1 50 -7 50
-6 0 -11 -1 -12 -2z" />
        <path d="M9056 5185 c17 -25 26 -30 37 -19 11 12 -13 44 -34 44 -18 0 -19 -1
-3 -25z" />
        <path d="M9026 5159 c-10 -12 -15 -23 -12 -26 9 -9 46 8 46 22 0 23 -16 25
-34 4z" />
        <path
            d="M8823 5087 c-23 -13 -63 -59 -63 -74 0 -4 -4 -14 -9 -22 -7 -11 -17
-11 -57 4 -27 10 -56 24 -65 32 -9 7 -19 10 -22 6 -4 -3 -7 1 -7 10 0 10 -4
17 -9 17 -10 0 -36 -29 -30 -34 14 -11 102 -46 142 -56 44 -12 47 -15 47 -45
0 -45 53 -104 102 -112 20 -3 52 -3 70 1 41 8 96 58 104 94 9 47 20 57 67 66
42 8 57 22 42 38 -3 3 -22 -3 -43 -13 -20 -11 -41 -19 -47 -19 -5 1 -19 19
-30 42 -12 25 -34 48 -55 59 -39 21 -104 24 -137 6z" />
        <path
            d="M8086 5004 c-23 -13 -34 -14 -54 -5 -32 15 -43 3 -14 -16 12 -9 22
-21 22 -28 0 -8 12 -12 33 -11 28 1 32 -2 32 -24 0 -16 7 -26 18 -28 15 -3 17
1 11 22 -6 27 2 31 49 27 9 -1 17 4 17 12 0 7 11 19 25 25 14 6 25 16 25 22 0
13 -10 12 -40 -4 -22 -13 -28 -12 -51 5 -32 23 -36 23 -73 3z m59 -24 c18 -20
17 -20 -18 -20 -39 0 -45 8 -25 28 16 16 22 15 43 -8z" />
        <path d="M6800 4766 c0 -11 10 -16 31 -16 38 0 35 24 -4 28 -19 2 -27 -1 -27
-12z" />
        <path
            d="M6900 4765 c0 -11 12 -15 45 -15 33 0 45 4 45 15 0 11 -12 15 -45 15
-33 0 -45 -4 -45 -15z" />
        <path d="M7762 4738 c2 -12 10 -23 18 -23 22 0 19 39 -3 43 -15 3 -18 -1 -15
-20z" />
        <path
            d="M1173 4615 c-3 -10 10 -30 37 -55 24 -22 46 -40 50 -40 11 0 90 86
90 98 0 22 -32 12 -62 -20 l-30 -32 -29 32 c-32 35 -47 40 -56 17z" />
        <path
            d="M8292 4463 c-86 -42 -94 -87 -90 -515 l3 -345 28 -42 c16 -24 43 -49
65 -59 20 -9 39 -17 41 -19 1 -1 -9 -52 -24 -113 -14 -62 -25 -114 -22 -116 2
-2 76 50 164 116 l161 120 379 0 c219 0 397 5 422 11 60 13 100 44 122 93 17
37 19 71 19 396 0 349 0 357 -22 400 -13 24 -36 53 -51 64 -28 21 -41 21 -595
23 -507 3 -570 1 -600 -14z m283 -379 c21 -8 45 -56 45 -89 0 -38 -41 -75 -85
-75 -25 0 -44 8 -60 25 -68 67 8 174 100 139z m362 -16 c29 -33 35 -57 23 -93
-29 -88 -160 -63 -160 30 0 73 90 115 137 63z m348 -3 c55 -54 19 -145 -56
-145 -36 0 -89 47 -89 79 0 78 92 120 145 66z" />
        <path
            d="M850 4310 c0 -20 7 -20 755 -20 748 0 755 0 755 20 0 20 -7 20 -755
20 -748 0 -755 0 -755 -20z" />
        <path
            d="M850 4156 c0 -21 115 -25 833 -26 654 -1 657 -1 657 20 0 20 -3 20
-745 20 -624 0 -745 -2 -745 -14z" />
        <path d="M2870 4111 c-16 -30 -12 -41 13 -41 32 0 38 8 25 36 -14 29 -24 30
-38 5z" />
        <path
            d="M850 3995 c0 -13 89 -15 740 -15 651 0 740 2 740 15 0 13 -89 15
-740 15 -651 0 -740 -2 -740 -15z" />
        <path
            d="M3251 3919 c-17 -16 -21 -28 -17 -48 13 -55 14 -96 4 -109 -14 -17
-1 -29 15 -13 12 12 13 16 16 46 1 10 9 13 29 9 21 -4 33 1 56 25 l30 31 -39
40 c-44 45 -62 49 -94 19z m64 -9 c4 -6 1 -18 -6 -26 -15 -18 -3 -32 13 -16
14 14 38 16 38 3 0 -4 -10 -21 -22 -36 l-21 -28 -28 34 c-30 36 -37 64 -16 72
21 9 36 8 42 -3z" />
        <path
            d="M850 3840 c0 -20 4 -20 598 -18 523 3 597 5 597 18 0 13 -74 15 -597
18 -594 2 -598 2 -598 -18z" />
        <path
            d="M850 3680 c0 -20 7 -20 570 -20 563 0 570 0 570 20 0 20 -7 20 -570
20 -563 0 -570 0 -570 -20z" />
        <path d="M6274 3605 c-4 -9 -2 -21 4 -27 15 -15 44 -1 40 19 -4 23 -36 29 -44
8z" />
        <path
            d="M850 3520 c0 -19 7 -20 259 -20 213 0 260 2 264 14 3 8 3 17 0 20 -4
3 -123 6 -265 6 -251 0 -258 -1 -258 -20z" />
        <path d="M2670 3431 c0 -12 6 -21 15 -21 8 0 15 4 15 9 0 5 -7 14 -15 21 -13
10 -15 9 -15 -9z" />
        <path d="M2579 3424 c-11 -14 -10 -16 9 -12 13 1 23 7 23 13 1 17 -17 16 -32
-1z" />
        <path
            d="M1812 3407 c-28 -30 -28 -58 1 -85 30 -28 52 -28 82 3 30 29 32 58 5
85 -27 27 -62 25 -88 -3z m68 -23 c0 -13 -21 -44 -30 -44 -6 0 -10 11 -10 25
0 18 5 25 20 25 11 0 20 -3 20 -6z" />
        <path
            d="M3337 3379 c-56 -13 -114 -45 -165 -92 -64 -59 -116 -177 -78 -177 7
0 21 21 31 47 23 60 86 128 150 161 44 23 62 26 145 27 52 0 106 -4 118 -8 20
-8 23 -6 20 9 -6 36 -131 54 -221 33z" />
        <path d="M2600 3370 c0 -5 5 -10 10 -10 6 0 10 5 10 10 0 6 -4 10 -10 10 -5 0
-10 -4 -10 -10z" />
        <path d="M2660 3369 c0 -5 5 -7 10 -4 6 3 10 8 10 11 0 2 -4 4 -10 4 -5 0 -10
-5 -10 -11z" />
        <path
            d="M8864 3231 c-2 -2 -4 -17 -4 -32 0 -19 -6 -28 -22 -33 -13 -3 -184
-6 -380 -6 -312 0 -358 -2 -358 -15 0 -13 49 -15 380 -15 l380 0 0 -35 c0 -35
0 -35 45 -35 l45 0 0 84 0 84 -41 4 c-22 2 -42 2 -45 -1z" />
        <path d="M4100 3217 c0 -23 17 -38 33 -31 23 9 21 17 -8 31 -19 8 -25 8 -25 0z" />
        <path d="M4050 3201 c0 -5 14 -19 30 -31 35 -25 43 -6 10 23 -22 19 -40 22
-40 8z" />
        <path
            d="M3395 3191 l-90 -6 -3 -57 -3 -56 41 -7 c53 -9 53 -34 0 -86 -31 -31
-40 -47 -40 -74 0 -62 4 -65 89 -65 80 0 93 4 85 23 -3 8 -28 11 -74 9 l-70
-4 0 29 c0 32 7 44 35 59 13 7 24 29 30 60 13 58 37 68 82 34 33 -24 92 -35
113 -21 11 8 15 30 15 88 l0 78 -60 1 c-33 0 -100 -2 -150 -5z m183 -75 c2
-32 -1 -63 -7 -69 -15 -15 -57 0 -68 25 -9 21 -16 23 -94 23 -73 0 -84 2 -87
19 -6 27 9 36 64 38 27 1 60 8 74 15 14 7 45 12 70 11 l45 -3 3 -59z" />
        <path d="M4680 3163 c0 -13 5 -23 10 -23 13 0 13 11 0 30 -8 12 -10 11 -10 -7z" />
        <path
            d="M5840 3150 c0 -12 -7 -20 -17 -20 -25 0 -147 -120 -135 -132 6 -6 19
0 37 16 14 13 33 22 40 20 8 -3 12 2 12 13 -2 12 8 21 31 28 19 5 32 16 32 26
0 12 6 15 25 11 29 -5 31 4 9 36 -19 27 -34 28 -34 2z" />
        <path
            d="M8013 3164 c-7 -3 -13 -12 -13 -20 0 -10 12 -14 41 -14 33 0 40 3 37
18 -3 17 -41 26 -65 16z" />
        <path
            d="M3746 3113 c5 -16 9 -67 8 -114 -1 -68 -6 -97 -23 -132 -30 -61 -115
-137 -178 -160 -116 -41 -256 -13 -345 70 -47 45 -98 130 -98 165 0 11 -7 18
-20 18 -17 0 -19 -4 -14 -27 24 -102 110 -204 212 -251 48 -23 70 -27 147 -27
76 0 99 4 147 27 79 37 142 98 181 177 29 59 32 75 31 146 -2 89 -15 135 -40
135 -13 0 -15 -5 -8 -27z" />
        <path
            d="M4691 3083 c0 -12 -4 -30 -7 -40 -5 -14 -4 -15 5 -7 7 6 11 24 8 40
-3 21 -4 23 -6 7z" />
        <path d="M9175 3068 c-4 -20 -4 -42 1 -49 12 -20 24 25 15 58 l-8 28 -8 -37z" />
        <path d="M4630 2985 c-7 -8 -8 -15 -2 -15 5 0 15 7 22 15 7 8 8 15 2 15 -5 0
-15 -7 -22 -15z" />
        <path
            d="M5371 2976 c-21 -25 -9 -69 21 -80 50 -17 89 42 52 78 -19 20 -58 21
-73 2z m49 -36 c0 -11 -4 -20 -10 -20 -5 0 -10 9 -10 20 0 11 5 20 10 20 6 0
10 -9 10 -20z" />
        <path d="M3590 2966 c0 -2 9 -6 20 -9 11 -3 20 -1 20 4 0 5 -9 9 -20 9 -11 0
-20 -2 -20 -4z" />
        <path d="M3685 2959 c-4 -6 -5 -12 -2 -15 7 -7 37 7 37 17 0 13 -27 11 -35 -2z" />
        <path d="M3830 2960 c-13 -8 -12 -10 3 -10 9 0 17 5 17 10 0 12 -1 12 -20 0z" />
        <path d="M3860 2954 c0 -8 5 -12 10 -9 6 4 8 11 5 16 -9 14 -15 11 -15 -7z" />
        <path
            d="M3910 2960 c0 -5 9 -10 20 -10 11 0 20 5 20 10 0 6 -9 10 -20 10 -11
0 -20 -4 -20 -10z" />
        <path d="M3980 2960 c0 -5 7 -10 15 -10 8 0 15 5 15 10 0 6 -7 10 -15 10 -8 0
-15 -4 -15 -10z" />
        <path
            d="M4040 2960 c0 -5 9 -10 20 -10 11 0 20 5 20 10 0 6 -9 10 -20 10 -11
0 -20 -4 -20 -10z" />
        <path d="M4100 2960 c0 -5 7 -10 15 -10 8 0 15 5 15 10 0 6 -7 10 -15 10 -8 0
-15 -4 -15 -10z" />
        <path
            d="M4155 2960 c3 -5 13 -10 21 -10 8 0 14 5 14 10 0 6 -9 10 -21 10 -11
0 -17 -4 -14 -10z" />
        <path
            d="M4225 2960 c-3 -5 3 -10 14 -10 12 0 21 5 21 10 0 6 -6 10 -14 10 -8
0 -18 -4 -21 -10z" />
        <path
            d="M4280 2960 c0 -5 9 -10 20 -10 11 0 20 5 20 10 0 6 -9 10 -20 10 -11
0 -20 -4 -20 -10z" />
        <path
            d="M4350 2960 c0 -5 9 -10 20 -10 11 0 20 5 20 10 0 6 -9 10 -20 10 -11
0 -20 -4 -20 -10z" />
        <path d="M4420 2960 c0 -5 7 -10 15 -10 8 0 15 5 15 10 0 6 -7 10 -15 10 -8 0
-15 -4 -15 -10z" />
        <path
            d="M4485 2960 c-3 -5 3 -10 14 -10 12 0 21 5 21 10 0 6 -6 10 -14 10 -8
0 -18 -4 -21 -10z" />
        <path
            d="M4555 2960 c-3 -5 3 -10 14 -10 12 0 21 5 21 10 0 6 -6 10 -14 10 -8
0 -18 -4 -21 -10z" />
        <path d="M3650 2950 c0 -5 5 -10 10 -10 6 0 10 5 10 10 0 6 -4 10 -10 10 -5 0
-10 -4 -10 -10z" />
        <path
            d="M1980 2825 c0 -29 4 -45 13 -45 8 0 7 -4 -3 -10 -13 -9 -13 -10 0
-10 11 0 16 14 17 55 2 42 -1 55 -12 55 -11 0 -15 -12 -15 -45z" />
        <path
            d="M8370 2850 c-27 -18 9 -30 88 -30 65 0 72 2 72 20 0 18 -7 20 -72 20
-40 0 -80 -5 -88 -10z" />
        <path
            d="M8570 2839 c0 -17 7 -18 83 -15 63 2 82 6 82 17 0 11 -19 14 -82 16
-75 1 -83 0 -83 -18z" />
        <path
            d="M8775 2851 c-17 -28 15 -31 291 -31 271 0 284 1 284 19 0 18 -13 19
-284 20 -190 1 -286 -1 -291 -8z" />
        <path
            d="M8260 2840 c0 -5 16 -10 36 -10 21 0 33 4 29 10 -3 6 -19 10 -36 10
-16 0 -29 -4 -29 -10z" />
        <path d="M1940 2821 c0 -6 5 -13 10 -16 6 -3 10 1 10 9 0 9 -4 16 -10 16 -5 0
-10 -4 -10 -9z" />
        <path d="M2040 2820 c0 -5 7 -10 15 -10 8 0 15 5 15 10 0 6 -7 10 -15 10 -8 0
-15 -4 -15 -10z" />
        <path
            d="M1167 2756 c-4 -9 13 -33 40 -60 l46 -46 42 37 c42 37 58 73 32 73
-8 0 -24 -11 -37 -25 -31 -33 -45 -32 -72 5 -24 33 -43 38 -51 16z" />
        <path d="M8157 2594 c-15 -15 -7 -45 11 -42 9 2 17 12 17 22 0 20 -16 31 -28
20z" />
        <path
            d="M8818 2571 c-221 -57 -348 -297 -278 -523 15 -48 60 -125 171 -294
84 -126 167 -253 186 -281 l35 -53 43 59 c88 120 327 485 346 527 52 122 47
254 -13 367 -92 172 -287 251 -490 198z m210 -240 c151 -78 162 -265 21 -361
-44 -30 -59 -35 -108 -34 -61 0 -120 25 -158 66 -70 74 -70 211 0 287 54 59
173 79 245 42z" />
        <path
            d="M8900 2223 c-72 -27 -89 -154 -27 -198 12 -8 42 -15 67 -15 38 0 51
5 74 28 83 88 -2 226 -114 185z m84 -49 c21 -21 21 -92 -1 -116 -21 -23 -65
-23 -86 0 -33 36 -30 100 7 124 19 13 64 9 80 -8z" />
        <path
            d="M7196 2478 l-37 -73 26 -3 c25 -3 25 -4 27 -115 1 -62 1 -131 0 -154
-2 -37 1 -43 18 -43 19 0 20 7 20 160 l0 160 25 -10 c21 -8 25 -7 25 9 0 15
-52 126 -65 139 -1 2 -19 -30 -39 -70z" />
        <path
            d="M732 2520 c-18 -4 -45 -18 -59 -31 -53 -50 -53 -49 -53 -461 0 -365
1 -385 20 -416 11 -18 34 -41 52 -52 32 -19 52 -20 442 -20 l408 0 67 -44 c36
-24 109 -76 161 -115 52 -38 95 -69 96 -68 2 1 -8 52 -21 112 -13 60 -22 111
-20 113 2 2 18 11 36 20 18 10 42 30 53 45 20 28 21 40 21 427 0 387 -1 399
-21 426 -11 15 -33 37 -48 48 -27 21 -39 21 -564 23 -295 1 -552 -2 -570 -7z
m260 -410 c63 -49 30 -150 -50 -150 -66 0 -104 69 -71 131 21 40 83 50 121 19z
m349 -9 c32 -33 36 -58 14 -100 -16 -33 -33 -41 -80 -41 -79 0 -105 130 -32
160 40 16 68 10 98 -19z m313 19 c33 -12 59 -63 51 -100 -21 -94 -165 -79
-165 17 0 72 49 108 114 83z" />
        <path d="M6770 2250 c0 -5 4 -10 9 -10 6 0 13 5 16 10 3 6 -1 10 -9 10 -9 0
-16 -4 -16 -10z" />
        <path d="M6860 2250 c0 -5 7 -10 15 -10 8 0 15 5 15 10 0 6 -7 10 -15 10 -8 0
-15 -4 -15 -10z" />
        <path d="M6950 2250 c0 -5 7 -10 15 -10 8 0 15 5 15 10 0 6 -7 10 -15 10 -8 0
-15 -4 -15 -10z" />
        <path d="M7048 2253 c7 -3 16 -2 19 1 4 3 -2 6 -13 5 -11 0 -14 -3 -6 -6z" />
        <path
            d="M7340 2250 c0 -5 9 -10 21 -10 11 0 17 5 14 10 -3 6 -13 10 -21 10
-8 0 -14 -4 -14 -10z" />
        <path
            d="M7430 2250 c0 -5 9 -10 21 -10 11 0 17 5 14 10 -3 6 -13 10 -21 10
-8 0 -14 -4 -14 -10z" />
        <path d="M7520 2250 c0 -5 7 -10 16 -10 8 0 12 5 9 10 -3 6 -10 10 -16 10 -5
0 -9 -4 -9 -10z" />
        <path
            d="M7605 2250 c3 -5 13 -10 21 -10 8 0 12 5 9 10 -3 6 -13 10 -21 10 -8
0 -12 -4 -9 -10z" />
        <path d="M7690 2250 c0 -5 5 -10 11 -10 5 0 7 5 4 10 -3 6 -8 10 -11 10 -2 0
-4 -4 -4 -10z" />
        <path
            d="M5413 2160 c-26 -11 -53 -59 -53 -95 0 -35 50 -85 85 -85 63 0 115
59 101 116 -15 59 -74 88 -133 64z m88 -54 c27 -58 -27 -114 -77 -81 -47 31
-20 105 38 105 20 0 32 -7 39 -24z" />
        <path
            d="M4492 2138 c-31 -31 6 -96 47 -83 12 3 26 15 32 26 23 43 -44 92 -79
57z m46 -37 c3 -16 -1 -22 -10 -19 -7 3 -15 15 -16 27 -3 16 1 22 10 19 7 -3
15 -15 16 -27z" />
        <path
            d="M2480 2130 c0 -5 3 -10 8 -10 4 0 13 -10 21 -22 12 -19 11 -24 -8
-39 -11 -9 -21 -22 -21 -28 0 -18 22 -13 47 11 l23 21 21 -27 c14 -18 25 -24
32 -17 6 6 2 19 -12 38 l-23 28 27 22 c23 20 24 24 9 30 -11 4 -24 -2 -37 -18
l-19 -24 -18 23 c-19 22 -50 30 -50 12z" />
        <path d="M6750 2110 c0 -5 5 -10 10 -10 6 0 10 5 10 10 0 6 -4 10 -10 10 -5 0
-10 -4 -10 -10z" />
        <path
            d="M6820 2110 c0 -5 9 -10 21 -10 11 0 17 5 14 10 -3 6 -13 10 -21 10
-8 0 -14 -4 -14 -10z" />
        <path
            d="M6910 2110 c0 -5 6 -10 14 -10 8 0 18 5 21 10 3 6 -3 10 -14 10 -12
0 -21 -4 -21 -10z" />
        <path d="M6990 2110 c0 -13 11 -13 30 0 12 8 11 10 -7 10 -13 0 -23 -4 -23
-10z" />
        <path
            d="M7085 2110 c-3 -5 3 -10 15 -10 12 0 18 5 15 10 -3 6 -10 10 -15 10
-5 0 -12 -4 -15 -10z" />
        <path d="M2470 2100 c-9 -6 -10 -10 -3 -10 6 0 15 5 18 10 8 12 4 12 -15 0z" />
        <path d="M2612 2088 c7 -19 38 -22 38 -4 0 10 -9 16 -21 16 -12 0 -19 -5 -17
-12z" />
        <path
            d="M3603 2066 c-20 -26 -36 -36 -55 -36 -18 0 -28 -5 -28 -15 0 -8 8
-15 18 -15 10 0 28 -13 40 -30 14 -18 32 -30 45 -30 34 0 82 34 97 69 12 29
11 35 -7 59 -13 17 -31 28 -51 30 -25 3 -35 -3 -59 -32z m83 -12 c16 -24 16
-27 -3 -52 -23 -32 -79 -43 -89 -18 -6 16 50 96 67 96 5 0 16 -12 25 -26z" />
        <path
            d="M7600 2090 c0 -5 9 -10 20 -10 11 0 20 5 20 10 0 6 -9 10 -20 10 -11
0 -20 -4 -20 -10z" />
        <path
            d="M7680 2090 c0 -5 12 -10 26 -10 14 0 23 4 19 10 -3 6 -15 10 -26 10
-10 0 -19 -4 -19 -10z" />
        <path
            d="M7760 2090 c0 -5 11 -10 25 -10 14 0 25 5 25 10 0 6 -11 10 -25 10
-14 0 -25 -4 -25 -10z" />
        <path
            d="M7840 2090 c0 -5 11 -10 25 -10 14 0 25 5 25 10 0 6 -11 10 -25 10
-14 0 -25 -4 -25 -10z" />
        <path d="M7920 2091 c0 -6 9 -9 20 -8 11 1 20 5 20 9 0 4 -9 8 -20 8 -11 0
-20 -4 -20 -9z" />
        <path
            d="M7990 2090 c0 -5 9 -10 20 -10 11 0 20 5 20 10 0 6 -9 10 -20 10 -11
0 -20 -4 -20 -10z" />
        <path
            d="M8070 2090 c0 -5 9 -10 21 -10 11 0 17 5 14 10 -3 6 -13 10 -21 10
-8 0 -14 -4 -14 -10z" />
        <path d="M8140 2090 c0 -5 7 -10 15 -10 8 0 15 5 15 10 0 6 -7 10 -15 10 -8 0
-15 -4 -15 -10z" />
        <path d="M8210 2090 c0 -5 7 -10 16 -10 8 0 12 5 9 10 -3 6 -10 10 -16 10 -5
0 -9 -4 -9 -10z" />
        <path
            d="M6051 2064 c-24 -20 -31 -34 -31 -60 0 -43 40 -84 81 -84 15 0 41
-11 57 -25 56 -47 122 -24 122 44 0 33 -8 43 -93 114 -55 45 -92 48 -136 11z
m87 -10 l23 -15 -28 -28 c-16 -14 -33 -35 -39 -46 -11 -20 -12 -20 -33 -1 -29
26 -26 50 10 80 36 31 38 31 67 10z m80 -64 c42 -26 48 -44 28 -75 -22 -33
-33 -31 -85 16 -43 38 -43 40 -26 59 23 25 41 25 83 0z" />
        <path d="M8340 2021 c0 -6 4 -13 10 -16 6 -3 7 1 4 9 -7 18 -14 21 -14 7z" />
        <path
            d="M2946 2009 c-108 -26 -221 -118 -270 -223 -27 -56 -51 -182 -43 -222
l4 -24 -117 0 c-64 0 -132 5 -151 11 -45 15 -88 56 -97 93 -11 40 -32 46 -32
8 0 -44 39 -94 95 -122 45 -22 62 -24 177 -25 l127 0 17 -45 c24 -62 59 -117
106 -166 l40 -41 -66 -8 c-36 -3 -70 -4 -76 0 -13 8 -50 -3 -50 -16 0 -9 22
-10 175 -9 28 1 77 -9 110 -21 35 -12 97 -23 150 -26 88 -6 92 -7 213 -75 68
-38 126 -67 130 -64 3 3 -9 61 -26 128 -29 117 -30 122 -12 137 33 29 79 102
95 152 l17 49 59 0 c32 0 59 -2 59 -4 0 -3 -4 -16 -10 -30 -13 -34 3 -34 49 2
l36 27 215 5 c179 4 215 7 215 20 0 12 -33 14 -211 15 l-211 0 -42 38 c-22 20
-44 37 -47 37 -4 0 -4 -17 0 -38 l6 -38 -53 1 -52 0 -7 80 c-8 96 -25 147 -74
221 -96 144 -275 213 -448 173z m54 -246 c14 -9 30 -24 37 -33 11 -13 13 -13
25 1 7 9 24 23 38 33 71 47 170 -22 170 -120 0 -59 -41 -115 -139 -193 l-89
-70 -21 34 c-11 19 -26 35 -32 35 -6 0 -36 -14 -67 -32 l-55 -31 7 29 c19 86
19 90 -9 134 -15 23 -29 57 -32 75 -17 104 89 192 167 138z" />
        <path
            d="M2896 1709 c-36 -43 -34 -82 12 -155 32 -52 40 -60 54 -50 14 9 25 4
56 -27 l39 -38 79 69 c60 51 81 77 88 104 11 44 2 81 -26 108 -33 31 -65 25
-111 -20 l-40 -40 -37 40 c-46 50 -78 52 -114 9z" />
        <path d="M8361 1954 c0 -11 3 -14 6 -6 3 7 2 16 -1 19 -3 4 -6 -2 -5 -13z" />
        <path d="M2248 1933 c7 -3 16 -2 19 1 4 3 -2 6 -13 5 -11 0 -14 -3 -6 -6z" />
        <path d="M2251 1904 c0 -11 3 -14 6 -6 3 7 2 16 -1 19 -3 4 -6 -2 -5 -13z" />
        <path d="M2245 1870 c-3 -5 1 -10 9 -10 9 0 16 5 16 10 0 6 -4 10 -9 10 -6 0
-13 -4 -16 -10z" />
        <path d="M8360 1850 c0 -5 5 -10 10 -10 6 0 10 5 10 10 0 6 -4 10 -10 10 -5 0
-10 -4 -10 -10z" />
        <path
            d="M3820 1795 l0 -45 114 0 114 0 23 -47 c25 -51 77 -93 114 -93 12 0
42 10 66 23 35 19 47 33 60 68 l17 44 113 1 114 1 3 46 3 47 -370 0 -371 0 0
-45z" />
        <path d="M7940 1826 c0 -24 26 -38 40 -22 6 9 9 20 5 26 -9 15 -45 12 -45 -4z" />
        <path d="M2245 1809 c-10 -15 3 -25 16 -12 7 7 7 13 1 17 -6 3 -14 1 -17 -5z" />
        <path d="M8360 1774 c0 -8 5 -12 10 -9 6 3 10 10 10 16 0 5 -4 9 -10 9 -5 0
-10 -7 -10 -16z" />
        <path d="M2240 1736 c0 -9 7 -16 16 -16 17 0 14 22 -4 28 -7 2 -12 -3 -12 -12z" />
        <path d="M8360 1705 c0 -8 5 -15 10 -15 6 0 10 7 10 15 0 8 -4 15 -10 15 -5 0
-10 -7 -10 -15z" />
        <path
            d="M8350 1646 c0 -23 -40 -66 -83 -88 -36 -18 -64 -22 -184 -26 -113 -4
-143 -7 -143 -18 0 -11 26 -14 128 -14 161 0 216 14 266 70 34 38 49 90 26 90
-5 0 -10 -6 -10 -14z" />
        <path
            d="M4348 1533 c-10 -2 -18 -11 -18 -19 0 -12 40 -14 250 -14 236 0 250
1 250 18 0 18 -14 19 -232 19 -128 0 -241 -1 -250 -4z" />
        <path d="M7850 1514 c0 -11 8 -14 32 -12 46 4 49 28 4 28 -26 0 -36 -4 -36
-16z" />
        <path
            d="M2267 1244 c-4 -4 -7 -13 -7 -21 0 -10 33 -13 161 -13 147 0 160 1
157 18 -3 15 -20 17 -154 20 -82 1 -153 -1 -157 -4z" />
        <path
            d="M1050 1230 c0 -5 18 -10 40 -10 22 0 40 5 40 10 0 6 -18 10 -40 10
-22 0 -40 -4 -40 -10z" />
        <path d="M1180 1231 c0 -11 21 -19 38 -14 21 8 13 23 -13 23 -14 0 -25 -4 -25
-9z" />
        <path
            d="M1270 1230 c0 -5 9 -10 20 -10 11 0 20 5 20 10 0 6 -9 10 -20 10 -11
0 -20 -4 -20 -10z" />
        <path d="M1330 1232 c0 -14 11 -21 26 -15 8 3 11 9 8 14 -7 11 -34 12 -34 1z" />
        <path
            d="M1403 1228 c2 -7 10 -13 17 -13 7 0 15 6 18 13 2 7 -5 12 -18 12 -13
0 -20 -5 -17 -12z" />
        <path d="M1480 1232 c0 -14 11 -21 26 -15 8 3 11 9 8 14 -7 11 -34 12 -34 1z" />
        <path d="M1550 1230 c0 -5 7 -10 15 -10 8 0 15 5 15 10 0 6 -7 10 -15 10 -8 0
-15 -4 -15 -10z" />
        <path d="M1620 1230 c0 -5 7 -10 15 -10 8 0 15 5 15 10 0 6 -7 10 -15 10 -8 0
-15 -4 -15 -10z" />
        <path d="M1680 1231 c0 -11 26 -22 34 -14 12 12 5 23 -14 23 -11 0 -20 -4 -20
-9z" />
        <path d="M1757 1234 c-4 -4 -4 -10 -1 -15 6 -10 34 0 34 12 0 10 -24 12 -33 3z" />
        <path d="M1820 1225 c0 -9 5 -15 11 -13 6 2 11 8 11 13 0 5 -5 11 -11 13 -6 2
-11 -4 -11 -13z" />
        <path d="M1880 1232 c0 -14 11 -21 26 -15 8 3 11 9 8 14 -7 11 -34 12 -34 1z" />
        <path
            d="M1955 1230 c-3 -5 3 -10 15 -10 12 0 18 5 15 10 -3 6 -10 10 -15 10
-5 0 -12 -4 -15 -10z" />
        <path
            d="M2030 1230 c0 -5 11 -10 25 -10 14 0 25 5 25 10 0 6 -11 10 -25 10
-14 0 -25 -4 -25 -10z" />
        <path
            d="M2150 1225 c0 -10 10 -15 30 -15 20 0 30 5 30 15 0 10 -10 15 -30 15
-20 0 -30 -5 -30 -15z" />
        <path d="M6726 1161 c-4 -7 -5 -15 -2 -18 9 -9 19 4 14 18 -4 11 -6 11 -12 0z" />
        <path d="M6780 1155 c0 -8 7 -15 15 -15 8 0 15 4 15 9 0 5 -7 11 -15 15 -9 3
-15 0 -15 -9z" />
        <path d="M6840 1161 c0 -14 18 -23 31 -15 8 4 7 9 -2 15 -18 11 -29 11 -29 0z" />
        <path d="M7120 1154 c0 -17 22 -14 28 4 2 7 -3 12 -12 12 -9 0 -16 -7 -16 -16z" />
        <path d="M7200 1155 c0 -9 6 -12 15 -9 8 4 15 10 15 15 0 5 -7 9 -15 9 -8 0
-15 -7 -15 -15z" />
        <path d="M7260 1155 c0 -8 7 -15 15 -15 8 0 15 4 15 9 0 5 -7 11 -15 15 -9 3
-15 0 -15 -9z" />
        <path d="M7325 1160 c-3 -6 1 -13 10 -16 19 -8 30 0 20 15 -8 14 -22 14 -30 1z" />
        <path d="M7410 1155 c0 -8 6 -15 14 -15 22 0 28 17 10 24 -22 9 -24 8 -24 -9z" />
        <path d="M7500 1155 c0 -10 7 -15 18 -13 21 4 19 22 -2 26 -10 2 -16 -3 -16
-13z" />
        <path d="M7590 1154 c0 -9 7 -14 17 -12 25 5 28 28 4 28 -12 0 -21 -6 -21 -16z" />
        <path d="M7685 1160 c-8 -12 20 -24 35 -15 5 3 10 10 10 16 0 12 -37 12 -45
-1z" />
        <path
            d="M7786 1155 c4 -8 15 -15 25 -15 10 0 19 7 19 15 0 9 -9 15 -25 15
-18 0 -23 -4 -19 -15z" />
        <path d="M7890 1155 c0 -17 2 -18 24 -9 23 9 20 24 -4 24 -11 0 -20 -7 -20
-15z" />
        <path d="M7982 1158 c5 -15 37 -18 41 -3 1 6 -9 12 -22 13 -16 3 -22 -1 -19
-10z" />
        <path
            d="M8080 1155 c0 -8 9 -15 20 -15 11 0 20 7 20 15 0 8 -9 15 -20 15 -11
0 -20 -7 -20 -15z" />
        <path
            d="M8180 1155 c0 -8 9 -15 20 -15 11 0 20 7 20 15 0 8 -9 15 -20 15 -11
0 -20 -7 -20 -15z" />
        <path
            d="M8289 1161 c11 -7 11 -9 0 -14 -8 -3 -4 -6 9 -6 13 -1 22 5 22 14 0
9 -9 15 -22 15 -17 0 -19 -3 -9 -9z" />
        <path d="M6918 1153 c6 -2 18 -2 25 0 6 3 1 5 -13 5 -14 0 -19 -2 -12 -5z" />
        <path d="M6985 1150 c3 -5 10 -10 16 -10 5 0 9 5 9 10 0 6 -7 10 -16 10 -8 0
-12 -4 -9 -10z" />
        <path d="M7055 1150 c3 -5 10 -10 16 -10 5 0 9 5 9 10 0 6 -7 10 -16 10 -8 0
-12 -4 -9 -10z" />
    </g>
</svg>